<?xml version="1.0" encoding="utf-8" standalone="no"?>
<!DOCTYPE svg PUBLIC "-//W3C//DTD SVG 1.1//EN"
  "http://www.w3.org/Graphics/SVG/1.1/DTD/svg11.dtd">
<svg xmlns:xlink="http://www.w3.org/1999/xlink" width="371.16pt" height="111.541094pt" viewBox="0 0 371.16 111.541094" xmlns="http://www.w3.org/2000/svg" version="1.1">
 <metadata>
  <rdf:RDF xmlns:dc="http://purl.org/dc/elements/1.1/" xmlns:cc="http://creativecommons.org/ns#" xmlns:rdf="http://www.w3.org/1999/02/22-rdf-syntax-ns#">
   <cc:Work>
    <dc:type rdf:resource="http://purl.org/dc/dcmitype/StillImage"/>
    <dc:date>2026-09-24T09:40:00.784559</dc:date>
    <dc:format>image/svg+xml</dc:format>
    <dc:creator>
     <cc:Agent>
      <dc:title>Matplotlib v3.10.8, https://matplotlib.org/</dc:title>
     </cc:Agent>
    </dc:creator>
   </cc:Work>
  </rdf:RDF>
 </metadata>
 <defs>
  <style type="text/css">*{stroke-linejoin: round; stroke-linecap: butt}</style>
 </defs>
 <g id="figure_1">
  <g id="patch_1">
   <path d="M 0 111.541094 
L 371.16 111.541094 
L 371.16 0 
L 0 0 
L 0 111.541094 
z
" style="fill: none; opacity: 0"/>
  </g>
  <g id="axes_1">
   <g id="patch_2">
    <path d="M 1.44 98.358594 
L 85.815 98.358594 
L 85.815 11.278594 
L 1.44 11.278594 
L 1.44 98.358594 
z
" style="fill: none"/>
   </g>
   <g id="patch_3">
    <path d="M 5.275227 98.358594 
L 6.371006 98.358594 
L 6.371006 98.358594 
L 5.275227 98.358594 
z
" clip-path="url(#p9c384c4252)" style="fill: #6366c9; opacity: 0.6"/>
   </g>
   <g id="patch_4">
    <path d="M 6.371006 98.358594 
L 7.466786 98.358594 
L 7.466786 98.358594 
L 6.371006 98.358594 
z
" clip-path="url(#p9c384c4252)" style="fill: #6366c9; opacity: 0.6"/>
   </g>
   <g id="patch_5">
    <path d="M 7.466786 98.358594 
L 8.562565 98.358594 
L 8.562565 98.358594 
L 7.466786 98.358594 
z
" clip-path="url(#p9c384c4252)" style="fill: #6366c9; opacity: 0.6"/>
   </g>
   <g id="patch_6">
    <path d="M 8.562565 98.358594 
L 9.658344 98.358594 
L 9.658344 98.358594 
L 8.562565 98.358594 
z
" clip-path="url(#p9c384c4252)" style="fill: #6366c9; opacity: 0.6"/>
   </g>
   <g id="patch_7">
    <path d="M 9.658344 98.358594 
L 10.754123 98.358594 
L 10.754123 98.358594 
L 9.658344 98.358594 
z
" clip-path="url(#p9c384c4252)" style="fill: #6366c9; opacity: 0.6"/>
   </g>
   <g id="patch_8">
    <path d="M 10.754123 98.358594 
L 11.849903 98.358594 
L 11.849903 98.358594 
L 10.754123 98.358594 
z
" clip-path="url(#p9c384c4252)" style="fill: #6366c9; opacity: 0.6"/>
   </g>
   <g id="patch_9">
    <path d="M 11.849903 98.358594 
L 12.945682 98.358594 
L 12.945682 98.358594 
L 11.849903 98.358594 
z
" clip-path="url(#p9c384c4252)" style="fill: #6366c9; opacity: 0.6"/>
   </g>
   <g id="patch_10">
    <path d="M 12.945682 98.358594 
L 14.041461 98.358594 
L 14.041461 98.358594 
L 12.945682 98.358594 
z
" clip-path="url(#p9c384c4252)" style="fill: #6366c9; opacity: 0.6"/>
   </g>
   <g id="patch_11">
    <path d="M 14.041461 98.358594 
L 15.13724 98.358594 
L 15.13724 98.358594 
L 14.041461 98.358594 
z
" clip-path="url(#p9c384c4252)" style="fill: #6366c9; opacity: 0.6"/>
   </g>
   <g id="patch_12">
    <path d="M 15.13724 98.358594 
L 16.233019 98.358594 
L 16.233019 98.358594 
L 15.13724 98.358594 
z
" clip-path="url(#p9c384c4252)" style="fill: #6366c9; opacity: 0.6"/>
   </g>
   <g id="patch_13">
    <path d="M 16.233019 98.358594 
L 17.328799 98.358594 
L 17.328799 98.358594 
L 16.233019 98.358594 
z
" clip-path="url(#p9c384c4252)" style="fill: #6366c9; opacity: 0.6"/>
   </g>
   <g id="patch_14">
    <path d="M 17.328799 98.358594 
L 18.424578 98.358594 
L 18.424578 98.358594 
L 17.328799 98.358594 
z
" clip-path="url(#p9c384c4252)" style="fill: #6366c9; opacity: 0.6"/>
   </g>
   <g id="patch_15">
    <path d="M 18.424578 98.358594 
L 19.520357 98.358594 
L 19.520357 98.358594 
L 18.424578 98.358594 
z
" clip-path="url(#p9c384c4252)" style="fill: #6366c9; opacity: 0.6"/>
   </g>
   <g id="patch_16">
    <path d="M 19.520357 98.358594 
L 20.616136 98.358594 
L 20.616136 98.358594 
L 19.520357 98.358594 
z
" clip-path="url(#p9c384c4252)" style="fill: #6366c9; opacity: 0.6"/>
   </g>
   <g id="patch_17">
    <path d="M 20.616136 98.358594 
L 21.711916 98.358594 
L 21.711916 98.358594 
L 20.616136 98.358594 
z
" clip-path="url(#p9c384c4252)" style="fill: #6366c9; opacity: 0.6"/>
   </g>
   <g id="patch_18">
    <path d="M 21.711916 98.358594 
L 22.807695 98.358594 
L 22.807695 98.358594 
L 21.711916 98.358594 
z
" clip-path="url(#p9c384c4252)" style="fill: #6366c9; opacity: 0.6"/>
   </g>
   <g id="patch_19">
    <path d="M 22.807695 98.358594 
L 23.903474 98.358594 
L 23.903474 98.358594 
L 22.807695 98.358594 
z
" clip-path="url(#p9c384c4252)" style="fill: #6366c9; opacity: 0.6"/>
   </g>
   <g id="patch_20">
    <path d="M 23.903474 98.358594 
L 24.999253 98.358594 
L 24.999253 98.358594 
L 23.903474 98.358594 
z
" clip-path="url(#p9c384c4252)" style="fill: #6366c9; opacity: 0.6"/>
   </g>
   <g id="patch_21">
    <path d="M 24.999253 98.358594 
L 26.095032 98.358594 
L 26.095032 98.358594 
L 24.999253 98.358594 
z
" clip-path="url(#p9c384c4252)" style="fill: #6366c9; opacity: 0.6"/>
   </g>
   <g id="patch_22">
    <path d="M 26.095032 98.358594 
L 27.190812 98.358594 
L 27.190812 98.358594 
L 26.095032 98.358594 
z
" clip-path="url(#p9c384c4252)" style="fill: #6366c9; opacity: 0.6"/>
   </g>
   <g id="patch_23">
    <path d="M 27.190812 98.358594 
L 28.286591 98.358594 
L 28.286591 98.358594 
L 27.190812 98.358594 
z
" clip-path="url(#p9c384c4252)" style="fill: #6366c9; opacity: 0.6"/>
   </g>
   <g id="patch_24">
    <path d="M 28.286591 98.358594 
L 29.38237 98.358594 
L 29.38237 98.358594 
L 28.286591 98.358594 
z
" clip-path="url(#p9c384c4252)" style="fill: #6366c9; opacity: 0.6"/>
   </g>
   <g id="patch_25">
    <path d="M 29.38237 98.358594 
L 30.478149 98.358594 
L 30.478149 98.358594 
L 29.38237 98.358594 
z
" clip-path="url(#p9c384c4252)" style="fill: #6366c9; opacity: 0.6"/>
   </g>
   <g id="patch_26">
    <path d="M 30.478149 98.358594 
L 31.573929 98.358594 
L 31.573929 22.393634 
L 30.478149 22.393634 
z
" clip-path="url(#p9c384c4252)" style="fill: #6366c9; opacity: 0.6"/>
   </g>
   <g id="patch_27">
    <path d="M 31.573929 98.358594 
L 32.669708 98.358594 
L 32.669708 15.42526 
L 31.573929 15.42526 
z
" clip-path="url(#p9c384c4252)" style="fill: #6366c9; opacity: 0.6"/>
   </g>
   <g id="patch_28">
    <path d="M 32.669708 98.358594 
L 33.765487 98.358594 
L 33.765487 68.974023 
L 32.669708 68.974023 
z
" clip-path="url(#p9c384c4252)" style="fill: #6366c9; opacity: 0.6"/>
   </g>
   <g id="patch_29">
    <path d="M 33.765487 98.358594 
L 34.861266 98.358594 
L 34.861266 83.364256 
L 33.765487 83.364256 
z
" clip-path="url(#p9c384c4252)" style="fill: #6366c9; opacity: 0.6"/>
   </g>
   <g id="patch_30">
    <path d="M 34.861266 98.358594 
L 35.957045 98.358594 
L 35.957045 89.161057 
L 34.861266 89.161057 
z
" clip-path="url(#p9c384c4252)" style="fill: #6366c9; opacity: 0.6"/>
   </g>
   <g id="patch_31">
    <path d="M 35.957045 98.358594 
L 37.052825 98.358594 
L 37.052825 92.094466 
L 35.957045 92.094466 
z
" clip-path="url(#p9c384c4252)" style="fill: #6366c9; opacity: 0.6"/>
   </g>
   <g id="patch_32">
    <path d="M 37.052825 98.358594 
L 38.148604 98.358594 
L 38.148604 93.882356 
L 37.052825 93.882356 
z
" clip-path="url(#p9c384c4252)" style="fill: #6366c9; opacity: 0.6"/>
   </g>
   <g id="patch_33">
    <path d="M 38.148604 98.358594 
L 39.244383 98.358594 
L 39.244383 95.075097 
L 38.148604 95.075097 
z
" clip-path="url(#p9c384c4252)" style="fill: #6366c9; opacity: 0.6"/>
   </g>
   <g id="patch_34">
    <path d="M 39.244383 98.358594 
L 40.340162 98.358594 
L 40.340162 95.805396 
L 39.244383 95.805396 
z
" clip-path="url(#p9c384c4252)" style="fill: #6366c9; opacity: 0.6"/>
   </g>
   <g id="patch_35">
    <path d="M 40.340162 98.358594 
L 41.435942 98.358594 
L 41.435942 96.335413 
L 40.340162 96.335413 
z
" clip-path="url(#p9c384c4252)" style="fill: #6366c9; opacity: 0.6"/>
   </g>
   <g id="patch_36">
    <path d="M 41.435942 98.358594 
L 42.531721 98.358594 
L 42.531721 96.757146 
L 41.435942 96.757146 
z
" clip-path="url(#p9c384c4252)" style="fill: #6366c9; opacity: 0.6"/>
   </g>
   <g id="patch_37">
    <path d="M 42.531721 98.358594 
L 43.6275 98.358594 
L 43.6275 97.10642 
L 42.531721 97.10642 
z
" clip-path="url(#p9c384c4252)" style="fill: #6366c9; opacity: 0.6"/>
   </g>
   <g id="patch_38">
    <path d="M 43.6275 98.358594 
L 44.723279 98.358594 
L 44.723279 97.243198 
L 43.6275 97.243198 
z
" clip-path="url(#p9c384c4252)" style="fill: #6366c9; opacity: 0.6"/>
   </g>
   <g id="patch_39">
    <path d="M 44.723279 98.358594 
L 45.819058 98.358594 
L 45.819058 97.389746 
L 44.723279 97.389746 
z
" clip-path="url(#p9c384c4252)" style="fill: #6366c9; opacity: 0.6"/>
   </g>
   <g id="patch_40">
    <path d="M 45.819058 98.358594 
L 46.914838 98.358594 
L 46.914838 97.568861 
L 45.819058 97.568861 
z
" clip-path="url(#p9c384c4252)" style="fill: #6366c9; opacity: 0.6"/>
   </g>
   <g id="patch_41">
    <path d="M 46.914838 98.358594 
L 48.010617 98.358594 
L 48.010617 97.677958 
L 46.914838 97.677958 
z
" clip-path="url(#p9c384c4252)" style="fill: #6366c9; opacity: 0.6"/>
   </g>
   <g id="patch_42">
    <path d="M 48.010617 98.358594 
L 49.106396 98.358594 
L 49.106396 97.79194 
L 48.010617 97.79194 
z
" clip-path="url(#p9c384c4252)" style="fill: #6366c9; opacity: 0.6"/>
   </g>
   <g id="patch_43">
    <path d="M 49.106396 98.358594 
L 50.202175 98.358594 
L 50.202175 97.836719 
L 49.106396 97.836719 
z
" clip-path="url(#p9c384c4252)" style="fill: #6366c9; opacity: 0.6"/>
   </g>
   <g id="patch_44">
    <path d="M 50.202175 98.358594 
L 51.297955 98.358594 
L 51.297955 97.879055 
L 50.202175 97.879055 
z
" clip-path="url(#p9c384c4252)" style="fill: #6366c9; opacity: 0.6"/>
   </g>
   <g id="patch_45">
    <path d="M 51.297955 98.358594 
L 52.393734 98.358594 
L 52.393734 97.952329 
L 51.297955 97.952329 
z
" clip-path="url(#p9c384c4252)" style="fill: #6366c9; opacity: 0.6"/>
   </g>
   <g id="patch_46">
    <path d="M 52.393734 98.358594 
L 53.489513 98.358594 
L 53.489513 98.01909 
L 52.393734 98.01909 
z
" clip-path="url(#p9c384c4252)" style="fill: #6366c9; opacity: 0.6"/>
   </g>
   <g id="patch_47">
    <path d="M 53.489513 98.358594 
L 54.585292 98.358594 
L 54.585292 98.046771 
L 53.489513 98.046771 
z
" clip-path="url(#p9c384c4252)" style="fill: #6366c9; opacity: 0.6"/>
   </g>
   <g id="patch_48">
    <path d="M 54.585292 98.358594 
L 55.681071 98.358594 
L 55.681071 98.06794 
L 54.585292 98.06794 
z
" clip-path="url(#p9c384c4252)" style="fill: #6366c9; opacity: 0.6"/>
   </g>
   <g id="patch_49">
    <path d="M 55.681071 98.358594 
L 56.776851 98.358594 
L 56.776851 98.095621 
L 55.681071 98.095621 
z
" clip-path="url(#p9c384c4252)" style="fill: #6366c9; opacity: 0.6"/>
   </g>
   <g id="patch_50">
    <path d="M 56.776851 98.358594 
L 57.87263 98.358594 
L 57.87263 98.115975 
L 56.776851 98.115975 
z
" clip-path="url(#p9c384c4252)" style="fill: #6366c9; opacity: 0.6"/>
   </g>
   <g id="patch_51">
    <path d="M 57.87263 98.358594 
L 58.968409 98.358594 
L 58.968409 98.151798 
L 57.87263 98.151798 
z
" clip-path="url(#p9c384c4252)" style="fill: #6366c9; opacity: 0.6"/>
   </g>
   <g id="patch_52">
    <path d="M 58.968409 98.358594 
L 60.064188 98.358594 
L 60.064188 98.181922 
L 58.968409 98.181922 
z
" clip-path="url(#p9c384c4252)" style="fill: #6366c9; opacity: 0.6"/>
   </g>
   <g id="patch_53">
    <path d="M 60.064188 98.358594 
L 61.159968 98.358594 
L 61.159968 98.181922 
L 60.064188 98.181922 
z
" clip-path="url(#p9c384c4252)" style="fill: #6366c9; opacity: 0.6"/>
   </g>
   <g id="patch_54">
    <path d="M 61.159968 98.358594 
L 62.255747 98.358594 
L 62.255747 98.188435 
L 61.159968 98.188435 
z
" clip-path="url(#p9c384c4252)" style="fill: #6366c9; opacity: 0.6"/>
   </g>
   <g id="patch_55">
    <path d="M 62.255747 98.358594 
L 63.351526 98.358594 
L 63.351526 98.215302 
L 62.255747 98.215302 
z
" clip-path="url(#p9c384c4252)" style="fill: #6366c9; opacity: 0.6"/>
   </g>
   <g id="patch_56">
    <path d="M 63.351526 98.358594 
L 64.447305 98.358594 
L 64.447305 98.229957 
L 63.351526 98.229957 
z
" clip-path="url(#p9c384c4252)" style="fill: #6366c9; opacity: 0.6"/>
   </g>
   <g id="patch_57">
    <path d="M 64.447305 98.358594 
L 65.543084 98.358594 
L 65.543084 98.248682 
L 64.447305 98.248682 
z
" clip-path="url(#p9c384c4252)" style="fill: #6366c9; opacity: 0.6"/>
   </g>
   <g id="patch_58">
    <path d="M 65.543084 98.358594 
L 66.638864 98.358594 
L 66.638864 98.237284 
L 65.543084 98.237284 
z
" clip-path="url(#p9c384c4252)" style="fill: #6366c9; opacity: 0.6"/>
   </g>
   <g id="patch_59">
    <path d="M 66.638864 98.358594 
L 67.734643 98.358594 
L 67.734643 98.260895 
L 66.638864 98.260895 
z
" clip-path="url(#p9c384c4252)" style="fill: #6366c9; opacity: 0.6"/>
   </g>
   <g id="patch_60">
    <path d="M 67.734643 98.358594 
L 68.830422 98.358594 
L 68.830422 98.256824 
L 67.734643 98.256824 
z
" clip-path="url(#p9c384c4252)" style="fill: #6366c9; opacity: 0.6"/>
   </g>
   <g id="patch_61">
    <path d="M 68.830422 98.358594 
L 69.926201 98.358594 
L 69.926201 98.277178 
L 68.830422 98.277178 
z
" clip-path="url(#p9c384c4252)" style="fill: #6366c9; opacity: 0.6"/>
   </g>
   <g id="patch_62">
    <path d="M 69.926201 98.358594 
L 71.021981 98.358594 
L 71.021981 98.258452 
L 69.926201 98.258452 
z
" clip-path="url(#p9c384c4252)" style="fill: #6366c9; opacity: 0.6"/>
   </g>
   <g id="patch_63">
    <path d="M 71.021981 98.358594 
L 72.11776 98.358594 
L 72.11776 98.273107 
L 71.021981 98.273107 
z
" clip-path="url(#p9c384c4252)" style="fill: #6366c9; opacity: 0.6"/>
   </g>
   <g id="patch_64">
    <path d="M 72.11776 98.358594 
L 73.213539 98.358594 
L 73.213539 98.290205 
L 72.11776 98.290205 
z
" clip-path="url(#p9c384c4252)" style="fill: #6366c9; opacity: 0.6"/>
   </g>
   <g id="patch_65">
    <path d="M 73.213539 98.358594 
L 74.309318 98.358594 
L 74.309318 98.286134 
L 73.213539 98.286134 
z
" clip-path="url(#p9c384c4252)" style="fill: #6366c9; opacity: 0.6"/>
   </g>
   <g id="patch_66">
    <path d="M 74.309318 98.358594 
L 75.405097 98.358594 
L 75.405097 98.298346 
L 74.309318 98.298346 
z
" clip-path="url(#p9c384c4252)" style="fill: #6366c9; opacity: 0.6"/>
   </g>
   <g id="patch_67">
    <path d="M 75.405097 98.358594 
L 76.500877 98.358594 
L 76.500877 98.282063 
L 75.405097 98.282063 
z
" clip-path="url(#p9c384c4252)" style="fill: #6366c9; opacity: 0.6"/>
   </g>
   <g id="patch_68">
    <path d="M 76.500877 98.358594 
L 77.596656 98.358594 
L 77.596656 98.302417 
L 76.500877 98.302417 
z
" clip-path="url(#p9c384c4252)" style="fill: #6366c9; opacity: 0.6"/>
   </g>
   <g id="patch_69">
    <path d="M 77.596656 98.358594 
L 78.692435 98.358594 
L 78.692435 98.315443 
L 77.596656 98.315443 
z
" clip-path="url(#p9c384c4252)" style="fill: #6366c9; opacity: 0.6"/>
   </g>
   <g id="patch_70">
    <path d="M 78.692435 98.358594 
L 79.788214 98.358594 
L 79.788214 98.304859 
L 78.692435 98.304859 
z
" clip-path="url(#p9c384c4252)" style="fill: #6366c9; opacity: 0.6"/>
   </g>
   <g id="patch_71">
    <path d="M 79.788214 98.358594 
L 80.883994 98.358594 
L 80.883994 98.306488 
L 79.788214 98.306488 
z
" clip-path="url(#p9c384c4252)" style="fill: #6366c9; opacity: 0.6"/>
   </g>
   <g id="patch_72">
    <path d="M 80.883994 98.358594 
L 81.979773 98.358594 
L 81.979773 98.310558 
L 80.883994 98.310558 
z
" clip-path="url(#p9c384c4252)" style="fill: #6366c9; opacity: 0.6"/>
   </g>
   <g id="matplotlib.axis_1">
    <g id="text_1">
     <!-- skew 24.16 -->
     <g style="fill: #6e7686" transform="translate(20.9175 108.437344) scale(0.08 -0.08)">
      <defs>
       <path id="DejaVuSans-73" d="M 2834 3397 
L 2834 2853 
Q 2591 2978 2328 3040 
Q 2066 3103 1784 3103 
Q 1356 3103 1142 2972 
Q 928 2841 928 2578 
Q 928 2378 1081 2264 
Q 1234 2150 1697 2047 
L 1894 2003 
Q 2506 1872 2764 1633 
Q 3022 1394 3022 966 
Q 3022 478 2636 193 
Q 2250 -91 1575 -91 
Q 1294 -91 989 -36 
Q 684 19 347 128 
L 347 722 
Q 666 556 975 473 
Q 1284 391 1588 391 
Q 1994 391 2212 530 
Q 2431 669 2431 922 
Q 2431 1156 2273 1281 
Q 2116 1406 1581 1522 
L 1381 1569 
Q 847 1681 609 1914 
Q 372 2147 372 2553 
Q 372 3047 722 3315 
Q 1072 3584 1716 3584 
Q 2034 3584 2315 3537 
Q 2597 3491 2834 3397 
z
" transform="scale(0.015625)"/>
       <path id="DejaVuSans-6b" d="M 581 4863 
L 1159 4863 
L 1159 1991 
L 2875 3500 
L 3609 3500 
L 1753 1863 
L 3688 0 
L 2938 0 
L 1159 1709 
L 1159 0 
L 581 0 
L 581 4863 
z
" transform="scale(0.015625)"/>
       <path id="DejaVuSans-65" d="M 3597 1894 
L 3597 1613 
L 953 1613 
Q 991 1019 1311 708 
Q 1631 397 2203 397 
Q 2534 397 2845 478 
Q 3156 559 3463 722 
L 3463 178 
Q 3153 47 2828 -22 
Q 2503 -91 2169 -91 
Q 1331 -91 842 396 
Q 353 884 353 1716 
Q 353 2575 817 3079 
Q 1281 3584 2069 3584 
Q 2775 3584 3186 3129 
Q 3597 2675 3597 1894 
z
M 3022 2063 
Q 3016 2534 2758 2815 
Q 2500 3097 2075 3097 
Q 1594 3097 1305 2825 
Q 1016 2553 972 2059 
L 3022 2063 
z
" transform="scale(0.015625)"/>
       <path id="DejaVuSans-77" d="M 269 3500 
L 844 3500 
L 1563 769 
L 2278 3500 
L 2956 3500 
L 3675 769 
L 4391 3500 
L 4966 3500 
L 4050 0 
L 3372 0 
L 2619 2869 
L 1863 0 
L 1184 0 
L 269 3500 
z
" transform="scale(0.015625)"/>
       <path id="DejaVuSans-20" transform="scale(0.015625)"/>
       <path id="DejaVuSans-32" d="M 1228 531 
L 3431 531 
L 3431 0 
L 469 0 
L 469 531 
Q 828 903 1448 1529 
Q 2069 2156 2228 2338 
Q 2531 2678 2651 2914 
Q 2772 3150 2772 3378 
Q 2772 3750 2511 3984 
Q 2250 4219 1831 4219 
Q 1534 4219 1204 4116 
Q 875 4013 500 3803 
L 500 4441 
Q 881 4594 1212 4672 
Q 1544 4750 1819 4750 
Q 2544 4750 2975 4387 
Q 3406 4025 3406 3419 
Q 3406 3131 3298 2873 
Q 3191 2616 2906 2266 
Q 2828 2175 2409 1742 
Q 1991 1309 1228 531 
z
" transform="scale(0.015625)"/>
       <path id="DejaVuSans-34" d="M 2419 4116 
L 825 1625 
L 2419 1625 
L 2419 4116 
z
M 2253 4666 
L 3047 4666 
L 3047 1625 
L 3713 1625 
L 3713 1100 
L 3047 1100 
L 3047 0 
L 2419 0 
L 2419 1100 
L 313 1100 
L 313 1709 
L 2253 4666 
z
" transform="scale(0.015625)"/>
       <path id="DejaVuSans-2e" d="M 684 794 
L 1344 794 
L 1344 0 
L 684 0 
L 684 794 
z
" transform="scale(0.015625)"/>
       <path id="DejaVuSans-31" d="M 794 531 
L 1825 531 
L 1825 4091 
L 703 3866 
L 703 4441 
L 1819 4666 
L 2450 4666 
L 2450 531 
L 3481 531 
L 3481 0 
L 794 0 
L 794 531 
z
" transform="scale(0.015625)"/>
       <path id="DejaVuSans-36" d="M 2113 2584 
Q 1688 2584 1439 2293 
Q 1191 2003 1191 1497 
Q 1191 994 1439 701 
Q 1688 409 2113 409 
Q 2538 409 2786 701 
Q 3034 994 3034 1497 
Q 3034 2003 2786 2293 
Q 2538 2584 2113 2584 
z
M 3366 4563 
L 3366 3988 
Q 3128 4100 2886 4159 
Q 2644 4219 2406 4219 
Q 1781 4219 1451 3797 
Q 1122 3375 1075 2522 
Q 1259 2794 1537 2939 
Q 1816 3084 2150 3084 
Q 2853 3084 3261 2657 
Q 3669 2231 3669 1497 
Q 3669 778 3244 343 
Q 2819 -91 2113 -91 
Q 1303 -91 875 529 
Q 447 1150 447 2328 
Q 447 3434 972 4092 
Q 1497 4750 2381 4750 
Q 2619 4750 2861 4703 
Q 3103 4656 3366 4563 
z
" transform="scale(0.015625)"/>
      </defs>
      <use xlink:href="#DejaVuSans-73"/>
      <use xlink:href="#DejaVuSans-6b" transform="translate(52.099609 0)"/>
      <use xlink:href="#DejaVuSans-65" transform="translate(106.384766 0)"/>
      <use xlink:href="#DejaVuSans-77" transform="translate(167.908203 0)"/>
      <use xlink:href="#DejaVuSans-20" transform="translate(249.695312 0)"/>
      <use xlink:href="#DejaVuSans-32" transform="translate(281.482422 0)"/>
      <use xlink:href="#DejaVuSans-34" transform="translate(345.105469 0)"/>
      <use xlink:href="#DejaVuSans-2e" transform="translate(408.728516 0)"/>
      <use xlink:href="#DejaVuSans-31" transform="translate(440.515625 0)"/>
      <use xlink:href="#DejaVuSans-36" transform="translate(504.138672 0)"/>
     </g>
    </g>
   </g>
   <g id="matplotlib.axis_2"/>
   <g id="text_2">
    <!-- population -->
    <g style="fill: #6e7686" transform="translate(1.44 8.278594) scale(0.09 -0.09)">
     <defs>
      <path id="DejaVuSans-70" d="M 1159 525 
L 1159 -1331 
L 581 -1331 
L 581 3500 
L 1159 3500 
L 1159 2969 
Q 1341 3281 1617 3432 
Q 1894 3584 2278 3584 
Q 2916 3584 3314 3078 
Q 3713 2572 3713 1747 
Q 3713 922 3314 415 
Q 2916 -91 2278 -91 
Q 1894 -91 1617 61 
Q 1341 213 1159 525 
z
M 3116 1747 
Q 3116 2381 2855 2742 
Q 2594 3103 2138 3103 
Q 1681 3103 1420 2742 
Q 1159 2381 1159 1747 
Q 1159 1113 1420 752 
Q 1681 391 2138 391 
Q 2594 391 2855 752 
Q 3116 1113 3116 1747 
z
" transform="scale(0.015625)"/>
      <path id="DejaVuSans-6f" d="M 1959 3097 
Q 1497 3097 1228 2736 
Q 959 2375 959 1747 
Q 959 1119 1226 758 
Q 1494 397 1959 397 
Q 2419 397 2687 759 
Q 2956 1122 2956 1747 
Q 2956 2369 2687 2733 
Q 2419 3097 1959 3097 
z
M 1959 3584 
Q 2709 3584 3137 3096 
Q 3566 2609 3566 1747 
Q 3566 888 3137 398 
Q 2709 -91 1959 -91 
Q 1206 -91 779 398 
Q 353 888 353 1747 
Q 353 2609 779 3096 
Q 1206 3584 1959 3584 
z
" transform="scale(0.015625)"/>
      <path id="DejaVuSans-75" d="M 544 1381 
L 544 3500 
L 1119 3500 
L 1119 1403 
Q 1119 906 1312 657 
Q 1506 409 1894 409 
Q 2359 409 2629 706 
Q 2900 1003 2900 1516 
L 2900 3500 
L 3475 3500 
L 3475 0 
L 2900 0 
L 2900 538 
Q 2691 219 2414 64 
Q 2138 -91 1772 -91 
Q 1169 -91 856 284 
Q 544 659 544 1381 
z
M 1991 3584 
L 1991 3584 
z
" transform="scale(0.015625)"/>
      <path id="DejaVuSans-6c" d="M 603 4863 
L 1178 4863 
L 1178 0 
L 603 0 
L 603 4863 
z
" transform="scale(0.015625)"/>
      <path id="DejaVuSans-61" d="M 2194 1759 
Q 1497 1759 1228 1600 
Q 959 1441 959 1056 
Q 959 750 1161 570 
Q 1363 391 1709 391 
Q 2188 391 2477 730 
Q 2766 1069 2766 1631 
L 2766 1759 
L 2194 1759 
z
M 3341 1997 
L 3341 0 
L 2766 0 
L 2766 531 
Q 2569 213 2275 61 
Q 1981 -91 1556 -91 
Q 1019 -91 701 211 
Q 384 513 384 1019 
Q 384 1609 779 1909 
Q 1175 2209 1959 2209 
L 2766 2209 
L 2766 2266 
Q 2766 2663 2505 2880 
Q 2244 3097 1772 3097 
Q 1472 3097 1187 3025 
Q 903 2953 641 2809 
L 641 3341 
Q 956 3463 1253 3523 
Q 1550 3584 1831 3584 
Q 2591 3584 2966 3190 
Q 3341 2797 3341 1997 
z
" transform="scale(0.015625)"/>
      <path id="DejaVuSans-74" d="M 1172 4494 
L 1172 3500 
L 2356 3500 
L 2356 3053 
L 1172 3053 
L 1172 1153 
Q 1172 725 1289 603 
Q 1406 481 1766 481 
L 2356 481 
L 2356 0 
L 1766 0 
Q 1100 0 847 248 
Q 594 497 594 1153 
L 594 3053 
L 172 3053 
L 172 3500 
L 594 3500 
L 594 4494 
L 1172 4494 
z
" transform="scale(0.015625)"/>
      <path id="DejaVuSans-69" d="M 603 3500 
L 1178 3500 
L 1178 0 
L 603 0 
L 603 3500 
z
M 603 4863 
L 1178 4863 
L 1178 4134 
L 603 4134 
L 603 4863 
z
" transform="scale(0.015625)"/>
      <path id="DejaVuSans-6e" d="M 3513 2113 
L 3513 0 
L 2938 0 
L 2938 2094 
Q 2938 2591 2744 2837 
Q 2550 3084 2163 3084 
Q 1697 3084 1428 2787 
Q 1159 2491 1159 1978 
L 1159 0 
L 581 0 
L 581 3500 
L 1159 3500 
L 1159 2956 
Q 1366 3272 1645 3428 
Q 1925 3584 2291 3584 
Q 2894 3584 3203 3211 
Q 3513 2838 3513 2113 
z
" transform="scale(0.015625)"/>
     </defs>
     <use xlink:href="#DejaVuSans-70"/>
     <use xlink:href="#DejaVuSans-6f" transform="translate(63.476562 0)"/>
     <use xlink:href="#DejaVuSans-70" transform="translate(124.658203 0)"/>
     <use xlink:href="#DejaVuSans-75" transform="translate(188.134766 0)"/>
     <use xlink:href="#DejaVuSans-6c" transform="translate(251.513672 0)"/>
     <use xlink:href="#DejaVuSans-61" transform="translate(279.296875 0)"/>
     <use xlink:href="#DejaVuSans-74" transform="translate(340.576172 0)"/>
     <use xlink:href="#DejaVuSans-69" transform="translate(379.785156 0)"/>
     <use xlink:href="#DejaVuSans-6f" transform="translate(407.568359 0)"/>
     <use xlink:href="#DejaVuSans-6e" transform="translate(468.75 0)"/>
    </g>
   </g>
  </g>
  <g id="axes_2">
   <g id="patch_73">
    <path d="M 96.075 98.358594 
L 180.45 98.358594 
L 180.45 11.278594 
L 96.075 11.278594 
L 96.075 98.358594 
z
" style="fill: none"/>
   </g>
   <g id="patch_74">
    <path d="M 99.910227 98.358594 
L 101.006006 98.358594 
L 101.006006 98.358594 
L 99.910227 98.358594 
z
" clip-path="url(#p414b54a635)" style="fill: #6366c9; opacity: 0.6"/>
   </g>
   <g id="patch_75">
    <path d="M 101.006006 98.358594 
L 102.101786 98.358594 
L 102.101786 98.358594 
L 101.006006 98.358594 
z
" clip-path="url(#p414b54a635)" style="fill: #6366c9; opacity: 0.6"/>
   </g>
   <g id="patch_76">
    <path d="M 102.101786 98.358594 
L 103.197565 98.358594 
L 103.197565 98.358594 
L 102.101786 98.358594 
z
" clip-path="url(#p414b54a635)" style="fill: #6366c9; opacity: 0.6"/>
   </g>
   <g id="patch_77">
    <path d="M 103.197565 98.358594 
L 104.293344 98.358594 
L 104.293344 98.358594 
L 103.197565 98.358594 
z
" clip-path="url(#p414b54a635)" style="fill: #6366c9; opacity: 0.6"/>
   </g>
   <g id="patch_78">
    <path d="M 104.293344 98.358594 
L 105.389123 98.358594 
L 105.389123 98.358594 
L 104.293344 98.358594 
z
" clip-path="url(#p414b54a635)" style="fill: #6366c9; opacity: 0.6"/>
   </g>
   <g id="patch_79">
    <path d="M 105.389123 98.358594 
L 106.484903 98.358594 
L 106.484903 98.358594 
L 105.389123 98.358594 
z
" clip-path="url(#p414b54a635)" style="fill: #6366c9; opacity: 0.6"/>
   </g>
   <g id="patch_80">
    <path d="M 106.484903 98.358594 
L 107.580682 98.358594 
L 107.580682 98.358594 
L 106.484903 98.358594 
z
" clip-path="url(#p414b54a635)" style="fill: #6366c9; opacity: 0.6"/>
   </g>
   <g id="patch_81">
    <path d="M 107.580682 98.358594 
L 108.676461 98.358594 
L 108.676461 98.358594 
L 107.580682 98.358594 
z
" clip-path="url(#p414b54a635)" style="fill: #6366c9; opacity: 0.6"/>
   </g>
   <g id="patch_82">
    <path d="M 108.676461 98.358594 
L 109.77224 98.358594 
L 109.77224 98.358594 
L 108.676461 98.358594 
z
" clip-path="url(#p414b54a635)" style="fill: #6366c9; opacity: 0.6"/>
   </g>
   <g id="patch_83">
    <path d="M 109.77224 98.358594 
L 110.868019 98.358594 
L 110.868019 98.358594 
L 109.77224 98.358594 
z
" clip-path="url(#p414b54a635)" style="fill: #6366c9; opacity: 0.6"/>
   </g>
   <g id="patch_84">
    <path d="M 110.868019 98.358594 
L 111.963799 98.358594 
L 111.963799 98.358594 
L 110.868019 98.358594 
z
" clip-path="url(#p414b54a635)" style="fill: #6366c9; opacity: 0.6"/>
   </g>
   <g id="patch_85">
    <path d="M 111.963799 98.358594 
L 113.059578 98.358594 
L 113.059578 98.358594 
L 111.963799 98.358594 
z
" clip-path="url(#p414b54a635)" style="fill: #6366c9; opacity: 0.6"/>
   </g>
   <g id="patch_86">
    <path d="M 113.059578 98.358594 
L 114.155357 98.358594 
L 114.155357 98.358594 
L 113.059578 98.358594 
z
" clip-path="url(#p414b54a635)" style="fill: #6366c9; opacity: 0.6"/>
   </g>
   <g id="patch_87">
    <path d="M 114.155357 98.358594 
L 115.251136 98.358594 
L 115.251136 98.358594 
L 114.155357 98.358594 
z
" clip-path="url(#p414b54a635)" style="fill: #6366c9; opacity: 0.6"/>
   </g>
   <g id="patch_88">
    <path d="M 115.251136 98.358594 
L 116.346916 98.358594 
L 116.346916 98.095522 
L 115.251136 98.095522 
z
" clip-path="url(#p414b54a635)" style="fill: #6366c9; opacity: 0.6"/>
   </g>
   <g id="patch_89">
    <path d="M 116.346916 98.358594 
L 117.442695 98.358594 
L 117.442695 95.00443 
L 116.346916 95.00443 
z
" clip-path="url(#p414b54a635)" style="fill: #6366c9; opacity: 0.6"/>
   </g>
   <g id="patch_90">
    <path d="M 117.442695 98.358594 
L 118.538474 98.358594 
L 118.538474 85.040592 
L 117.442695 85.040592 
z
" clip-path="url(#p414b54a635)" style="fill: #6366c9; opacity: 0.6"/>
   </g>
   <g id="patch_91">
    <path d="M 118.538474 98.358594 
L 119.634253 98.358594 
L 119.634253 67.546328 
L 118.538474 67.546328 
z
" clip-path="url(#p414b54a635)" style="fill: #6366c9; opacity: 0.6"/>
   </g>
   <g id="patch_92">
    <path d="M 119.634253 98.358594 
L 120.730032 98.358594 
L 120.730032 51.531842 
L 119.634253 51.531842 
z
" clip-path="url(#p414b54a635)" style="fill: #6366c9; opacity: 0.6"/>
   </g>
   <g id="patch_93">
    <path d="M 120.730032 98.358594 
L 121.825812 98.358594 
L 121.825812 29.927084 
L 120.730032 29.927084 
z
" clip-path="url(#p414b54a635)" style="fill: #6366c9; opacity: 0.6"/>
   </g>
   <g id="patch_94">
    <path d="M 121.825812 98.358594 
L 122.921591 98.358594 
L 122.921591 19.239799 
L 121.825812 19.239799 
z
" clip-path="url(#p414b54a635)" style="fill: #6366c9; opacity: 0.6"/>
   </g>
   <g id="patch_95">
    <path d="M 122.921591 98.358594 
L 124.01737 98.358594 
L 124.01737 15.42526 
L 122.921591 15.42526 
z
" clip-path="url(#p414b54a635)" style="fill: #6366c9; opacity: 0.6"/>
   </g>
   <g id="patch_96">
    <path d="M 124.01737 98.358594 
L 125.113149 98.358594 
L 125.113149 17.00369 
L 124.01737 17.00369 
z
" clip-path="url(#p414b54a635)" style="fill: #6366c9; opacity: 0.6"/>
   </g>
   <g id="patch_97">
    <path d="M 125.113149 98.358594 
L 126.208929 98.358594 
L 126.208929 24.928723 
L 125.113149 24.928723 
z
" clip-path="url(#p414b54a635)" style="fill: #6366c9; opacity: 0.6"/>
   </g>
   <g id="patch_98">
    <path d="M 126.208929 98.358594 
L 127.304708 98.358594 
L 127.304708 27.493672 
L 126.208929 27.493672 
z
" clip-path="url(#p414b54a635)" style="fill: #6366c9; opacity: 0.6"/>
   </g>
   <g id="patch_99">
    <path d="M 127.304708 98.358594 
L 128.400487 98.358594 
L 128.400487 37.062902 
L 127.304708 37.062902 
z
" clip-path="url(#p414b54a635)" style="fill: #6366c9; opacity: 0.6"/>
   </g>
   <g id="patch_100">
    <path d="M 128.400487 98.358594 
L 129.496266 98.358594 
L 129.496266 47.026741 
L 128.400487 47.026741 
z
" clip-path="url(#p414b54a635)" style="fill: #6366c9; opacity: 0.6"/>
   </g>
   <g id="patch_101">
    <path d="M 129.496266 98.358594 
L 130.592045 98.358594 
L 130.592045 52.945853 
L 129.496266 52.945853 
z
" clip-path="url(#p414b54a635)" style="fill: #6366c9; opacity: 0.6"/>
   </g>
   <g id="patch_102">
    <path d="M 130.592045 98.358594 
L 131.687825 98.358594 
L 131.687825 59.917251 
L 130.592045 59.917251 
z
" clip-path="url(#p414b54a635)" style="fill: #6366c9; opacity: 0.6"/>
   </g>
   <g id="patch_103">
    <path d="M 131.687825 98.358594 
L 132.783604 98.358594 
L 132.783604 64.126397 
L 131.687825 64.126397 
z
" clip-path="url(#p414b54a635)" style="fill: #6366c9; opacity: 0.6"/>
   </g>
   <g id="patch_104">
    <path d="M 132.783604 98.358594 
L 133.879383 98.358594 
L 133.879383 69.256294 
L 132.783604 69.256294 
z
" clip-path="url(#p414b54a635)" style="fill: #6366c9; opacity: 0.6"/>
   </g>
   <g id="patch_105">
    <path d="M 133.879383 98.358594 
L 134.975162 98.358594 
L 134.975162 74.353307 
L 133.879383 74.353307 
z
" clip-path="url(#p414b54a635)" style="fill: #6366c9; opacity: 0.6"/>
   </g>
   <g id="patch_106">
    <path d="M 134.975162 98.358594 
L 136.070942 98.358594 
L 136.070942 78.069194 
L 134.975162 78.069194 
z
" clip-path="url(#p414b54a635)" style="fill: #6366c9; opacity: 0.6"/>
   </g>
   <g id="patch_107">
    <path d="M 136.070942 98.358594 
L 137.166721 98.358594 
L 137.166721 81.982384 
L 136.070942 81.982384 
z
" clip-path="url(#p414b54a635)" style="fill: #6366c9; opacity: 0.6"/>
   </g>
   <g id="patch_108">
    <path d="M 137.166721 98.358594 
L 138.2625 98.358594 
L 138.2625 83.199091 
L 137.166721 83.199091 
z
" clip-path="url(#p414b54a635)" style="fill: #6366c9; opacity: 0.6"/>
   </g>
   <g id="patch_109">
    <path d="M 138.2625 98.358594 
L 139.358279 98.358594 
L 139.358279 85.566735 
L 138.2625 85.566735 
z
" clip-path="url(#p414b54a635)" style="fill: #6366c9; opacity: 0.6"/>
   </g>
   <g id="patch_110">
    <path d="M 139.358279 98.358594 
L 140.454058 98.358594 
L 140.454058 88.526291 
L 139.358279 88.526291 
z
" clip-path="url(#p414b54a635)" style="fill: #6366c9; opacity: 0.6"/>
   </g>
   <g id="patch_111">
    <path d="M 140.454058 98.358594 
L 141.549838 98.358594 
L 141.549838 89.67723 
L 140.454058 89.67723 
z
" clip-path="url(#p414b54a635)" style="fill: #6366c9; opacity: 0.6"/>
   </g>
   <g id="patch_112">
    <path d="M 141.549838 98.358594 
L 142.645617 98.358594 
L 142.645617 90.565097 
L 141.549838 90.565097 
z
" clip-path="url(#p414b54a635)" style="fill: #6366c9; opacity: 0.6"/>
   </g>
   <g id="patch_113">
    <path d="M 142.645617 98.358594 
L 143.741396 98.358594 
L 143.741396 91.25566 
L 142.645617 91.25566 
z
" clip-path="url(#p414b54a635)" style="fill: #6366c9; opacity: 0.6"/>
   </g>
   <g id="patch_114">
    <path d="M 143.741396 98.358594 
L 144.837175 98.358594 
L 144.837175 92.50525 
L 143.741396 92.50525 
z
" clip-path="url(#p414b54a635)" style="fill: #6366c9; opacity: 0.6"/>
   </g>
   <g id="patch_115">
    <path d="M 144.837175 98.358594 
L 145.932955 98.358594 
L 145.932955 93.524652 
L 144.837175 93.524652 
z
" clip-path="url(#p414b54a635)" style="fill: #6366c9; opacity: 0.6"/>
   </g>
   <g id="patch_116">
    <path d="M 145.932955 98.358594 
L 147.028734 98.358594 
L 147.028734 93.524652 
L 145.932955 93.524652 
z
" clip-path="url(#p414b54a635)" style="fill: #6366c9; opacity: 0.6"/>
   </g>
   <g id="patch_117">
    <path d="M 147.028734 98.358594 
L 148.124513 98.358594 
L 148.124513 94.445403 
L 147.028734 94.445403 
z
" clip-path="url(#p414b54a635)" style="fill: #6366c9; opacity: 0.6"/>
   </g>
   <g id="patch_118">
    <path d="M 148.124513 98.358594 
L 149.220292 98.358594 
L 149.220292 95.431922 
L 148.124513 95.431922 
z
" clip-path="url(#p414b54a635)" style="fill: #6366c9; opacity: 0.6"/>
   </g>
   <g id="patch_119">
    <path d="M 149.220292 98.358594 
L 150.316071 98.358594 
L 150.316071 95.49769 
L 149.220292 95.49769 
z
" clip-path="url(#p414b54a635)" style="fill: #6366c9; opacity: 0.6"/>
   </g>
   <g id="patch_120">
    <path d="M 150.316071 98.358594 
L 151.411851 98.358594 
L 151.411851 95.727877 
L 150.316071 95.727877 
z
" clip-path="url(#p414b54a635)" style="fill: #6366c9; opacity: 0.6"/>
   </g>
   <g id="patch_121">
    <path d="M 151.411851 98.358594 
L 152.50763 98.358594 
L 152.50763 96.122485 
L 151.411851 96.122485 
z
" clip-path="url(#p414b54a635)" style="fill: #6366c9; opacity: 0.6"/>
   </g>
   <g id="patch_122">
    <path d="M 152.50763 98.358594 
L 153.603409 98.358594 
L 153.603409 96.484208 
L 152.50763 96.484208 
z
" clip-path="url(#p414b54a635)" style="fill: #6366c9; opacity: 0.6"/>
   </g>
   <g id="patch_123">
    <path d="M 153.603409 98.358594 
L 154.699188 98.358594 
L 154.699188 96.352673 
L 153.603409 96.352673 
z
" clip-path="url(#p414b54a635)" style="fill: #6366c9; opacity: 0.6"/>
   </g>
   <g id="patch_124">
    <path d="M 154.699188 98.358594 
L 155.794968 98.358594 
L 155.794968 96.58286 
L 154.699188 96.58286 
z
" clip-path="url(#p414b54a635)" style="fill: #6366c9; opacity: 0.6"/>
   </g>
   <g id="patch_125">
    <path d="M 155.794968 98.358594 
L 156.890747 98.358594 
L 156.890747 97.207655 
L 155.794968 97.207655 
z
" clip-path="url(#p414b54a635)" style="fill: #6366c9; opacity: 0.6"/>
   </g>
   <g id="patch_126">
    <path d="M 156.890747 98.358594 
L 157.986526 98.358594 
L 157.986526 97.306307 
L 156.890747 97.306307 
z
" clip-path="url(#p414b54a635)" style="fill: #6366c9; opacity: 0.6"/>
   </g>
   <g id="patch_127">
    <path d="M 157.986526 98.358594 
L 159.082305 98.358594 
L 159.082305 97.109003 
L 157.986526 97.109003 
z
" clip-path="url(#p414b54a635)" style="fill: #6366c9; opacity: 0.6"/>
   </g>
   <g id="patch_128">
    <path d="M 159.082305 98.358594 
L 160.178084 98.358594 
L 160.178084 97.339191 
L 159.082305 97.339191 
z
" clip-path="url(#p414b54a635)" style="fill: #6366c9; opacity: 0.6"/>
   </g>
   <g id="patch_129">
    <path d="M 160.178084 98.358594 
L 161.273864 98.358594 
L 161.273864 97.536495 
L 160.178084 97.536495 
z
" clip-path="url(#p414b54a635)" style="fill: #6366c9; opacity: 0.6"/>
   </g>
   <g id="patch_130">
    <path d="M 161.273864 98.358594 
L 162.369643 98.358594 
L 162.369643 97.470727 
L 161.273864 97.470727 
z
" clip-path="url(#p414b54a635)" style="fill: #6366c9; opacity: 0.6"/>
   </g>
   <g id="patch_131">
    <path d="M 162.369643 98.358594 
L 163.465422 98.358594 
L 163.465422 97.503611 
L 162.369643 97.503611 
z
" clip-path="url(#p414b54a635)" style="fill: #6366c9; opacity: 0.6"/>
   </g>
   <g id="patch_132">
    <path d="M 163.465422 98.358594 
L 164.561201 98.358594 
L 164.561201 97.372075 
L 163.465422 97.372075 
z
" clip-path="url(#p414b54a635)" style="fill: #6366c9; opacity: 0.6"/>
   </g>
   <g id="patch_133">
    <path d="M 164.561201 98.358594 
L 165.656981 98.358594 
L 165.656981 97.83245 
L 164.561201 97.83245 
z
" clip-path="url(#p414b54a635)" style="fill: #6366c9; opacity: 0.6"/>
   </g>
   <g id="patch_134">
    <path d="M 165.656981 98.358594 
L 166.75276 98.358594 
L 166.75276 97.700915 
L 165.656981 97.700915 
z
" clip-path="url(#p414b54a635)" style="fill: #6366c9; opacity: 0.6"/>
   </g>
   <g id="patch_135">
    <path d="M 166.75276 98.358594 
L 167.848539 98.358594 
L 167.848539 97.733799 
L 166.75276 97.733799 
z
" clip-path="url(#p414b54a635)" style="fill: #6366c9; opacity: 0.6"/>
   </g>
   <g id="patch_136">
    <path d="M 167.848539 98.358594 
L 168.944318 98.358594 
L 168.944318 97.865334 
L 167.848539 97.865334 
z
" clip-path="url(#p414b54a635)" style="fill: #6366c9; opacity: 0.6"/>
   </g>
   <g id="patch_137">
    <path d="M 168.944318 98.358594 
L 170.040097 98.358594 
L 170.040097 97.865334 
L 168.944318 97.865334 
z
" clip-path="url(#p414b54a635)" style="fill: #6366c9; opacity: 0.6"/>
   </g>
   <g id="patch_138">
    <path d="M 170.040097 98.358594 
L 171.135877 98.358594 
L 171.135877 98.029754 
L 170.040097 98.029754 
z
" clip-path="url(#p414b54a635)" style="fill: #6366c9; opacity: 0.6"/>
   </g>
   <g id="patch_139">
    <path d="M 171.135877 98.358594 
L 172.231656 98.358594 
L 172.231656 97.898218 
L 171.135877 97.898218 
z
" clip-path="url(#p414b54a635)" style="fill: #6366c9; opacity: 0.6"/>
   </g>
   <g id="patch_140">
    <path d="M 172.231656 98.358594 
L 173.327435 98.358594 
L 173.327435 98.062638 
L 172.231656 98.062638 
z
" clip-path="url(#p414b54a635)" style="fill: #6366c9; opacity: 0.6"/>
   </g>
   <g id="patch_141">
    <path d="M 173.327435 98.358594 
L 174.423214 98.358594 
L 174.423214 97.799567 
L 173.327435 97.799567 
z
" clip-path="url(#p414b54a635)" style="fill: #6366c9; opacity: 0.6"/>
   </g>
   <g id="patch_142">
    <path d="M 174.423214 98.358594 
L 175.518994 98.358594 
L 175.518994 98.062638 
L 174.423214 98.062638 
z
" clip-path="url(#p414b54a635)" style="fill: #6366c9; opacity: 0.6"/>
   </g>
   <g id="patch_143">
    <path d="M 175.518994 98.358594 
L 176.614773 98.358594 
L 176.614773 98.16129 
L 175.518994 98.16129 
z
" clip-path="url(#p414b54a635)" style="fill: #6366c9; opacity: 0.6"/>
   </g>
   <g id="matplotlib.axis_3">
    <g id="text_3">
     <!-- skew 3.80 -->
     <g style="fill: #6e7686" transform="translate(118.0975 108.437344) scale(0.08 -0.08)">
      <defs>
       <path id="DejaVuSans-33" d="M 2597 2516 
Q 3050 2419 3304 2112 
Q 3559 1806 3559 1356 
Q 3559 666 3084 287 
Q 2609 -91 1734 -91 
Q 1441 -91 1130 -33 
Q 819 25 488 141 
L 488 750 
Q 750 597 1062 519 
Q 1375 441 1716 441 
Q 2309 441 2620 675 
Q 2931 909 2931 1356 
Q 2931 1769 2642 2001 
Q 2353 2234 1838 2234 
L 1294 2234 
L 1294 2753 
L 1863 2753 
Q 2328 2753 2575 2939 
Q 2822 3125 2822 3475 
Q 2822 3834 2567 4026 
Q 2313 4219 1838 4219 
Q 1578 4219 1281 4162 
Q 984 4106 628 3988 
L 628 4550 
Q 988 4650 1302 4700 
Q 1616 4750 1894 4750 
Q 2613 4750 3031 4423 
Q 3450 4097 3450 3541 
Q 3450 3153 3228 2886 
Q 3006 2619 2597 2516 
z
" transform="scale(0.015625)"/>
       <path id="DejaVuSans-38" d="M 2034 2216 
Q 1584 2216 1326 1975 
Q 1069 1734 1069 1313 
Q 1069 891 1326 650 
Q 1584 409 2034 409 
Q 2484 409 2743 651 
Q 3003 894 3003 1313 
Q 3003 1734 2745 1975 
Q 2488 2216 2034 2216 
z
M 1403 2484 
Q 997 2584 770 2862 
Q 544 3141 544 3541 
Q 544 4100 942 4425 
Q 1341 4750 2034 4750 
Q 2731 4750 3128 4425 
Q 3525 4100 3525 3541 
Q 3525 3141 3298 2862 
Q 3072 2584 2669 2484 
Q 3125 2378 3379 2068 
Q 3634 1759 3634 1313 
Q 3634 634 3220 271 
Q 2806 -91 2034 -91 
Q 1263 -91 848 271 
Q 434 634 434 1313 
Q 434 1759 690 2068 
Q 947 2378 1403 2484 
z
M 1172 3481 
Q 1172 3119 1398 2916 
Q 1625 2713 2034 2713 
Q 2441 2713 2670 2916 
Q 2900 3119 2900 3481 
Q 2900 3844 2670 4047 
Q 2441 4250 2034 4250 
Q 1625 4250 1398 4047 
Q 1172 3844 1172 3481 
z
" transform="scale(0.015625)"/>
       <path id="DejaVuSans-30" d="M 2034 4250 
Q 1547 4250 1301 3770 
Q 1056 3291 1056 2328 
Q 1056 1369 1301 889 
Q 1547 409 2034 409 
Q 2525 409 2770 889 
Q 3016 1369 3016 2328 
Q 3016 3291 2770 3770 
Q 2525 4250 2034 4250 
z
M 2034 4750 
Q 2819 4750 3233 4129 
Q 3647 3509 3647 2328 
Q 3647 1150 3233 529 
Q 2819 -91 2034 -91 
Q 1250 -91 836 529 
Q 422 1150 422 2328 
Q 422 3509 836 4129 
Q 1250 4750 2034 4750 
z
" transform="scale(0.015625)"/>
      </defs>
      <use xlink:href="#DejaVuSans-73"/>
      <use xlink:href="#DejaVuSans-6b" transform="translate(52.099609 0)"/>
      <use xlink:href="#DejaVuSans-65" transform="translate(106.384766 0)"/>
      <use xlink:href="#DejaVuSans-77" transform="translate(167.908203 0)"/>
      <use xlink:href="#DejaVuSans-20" transform="translate(249.695312 0)"/>
      <use xlink:href="#DejaVuSans-33" transform="translate(281.482422 0)"/>
      <use xlink:href="#DejaVuSans-2e" transform="translate(345.105469 0)"/>
      <use xlink:href="#DejaVuSans-38" transform="translate(376.892578 0)"/>
      <use xlink:href="#DejaVuSans-30" transform="translate(440.515625 0)"/>
     </g>
    </g>
   </g>
   <g id="matplotlib.axis_4"/>
   <g id="text_4">
    <!-- $n = 30$ -->
    <g style="fill: #6e7686" transform="translate(96.075 8.278594) scale(0.09 -0.09)">
     <defs>
      <path id="DejaVuSans-Oblique-6e" d="M 3566 2113 
L 3156 0 
L 2578 0 
L 2988 2091 
Q 3016 2238 3031 2350 
Q 3047 2463 3047 2528 
Q 3047 2791 2881 2937 
Q 2716 3084 2419 3084 
Q 1956 3084 1622 2776 
Q 1288 2469 1184 1941 
L 800 0 
L 225 0 
L 903 3500 
L 1478 3500 
L 1363 2950 
Q 1603 3253 1940 3418 
Q 2278 3584 2650 3584 
Q 3113 3584 3367 3334 
Q 3622 3084 3622 2631 
Q 3622 2519 3608 2391 
Q 3594 2263 3566 2113 
z
" transform="scale(0.015625)"/>
      <path id="DejaVuSans-3d" d="M 678 2906 
L 4684 2906 
L 4684 2381 
L 678 2381 
L 678 2906 
z
M 678 1631 
L 4684 1631 
L 4684 1100 
L 678 1100 
L 678 1631 
z
" transform="scale(0.015625)"/>
     </defs>
     <use xlink:href="#DejaVuSans-Oblique-6e" transform="translate(0 0.78125)"/>
     <use xlink:href="#DejaVuSans-3d" transform="translate(82.861328 0.78125)"/>
     <use xlink:href="#DejaVuSans-33" transform="translate(186.132812 0.78125)"/>
     <use xlink:href="#DejaVuSans-30" transform="translate(249.755859 0.78125)"/>
    </g>
   </g>
  </g>
  <g id="axes_3">
   <g id="patch_144">
    <path d="M 190.71 98.358594 
L 275.085 98.358594 
L 275.085 11.278594 
L 190.71 11.278594 
L 190.71 98.358594 
z
" style="fill: none"/>
   </g>
   <g id="patch_145">
    <path d="M 194.545227 98.358594 
L 195.641006 98.358594 
L 195.641006 98.358594 
L 194.545227 98.358594 
z
" clip-path="url(#p43873344a0)" style="fill: #6366c9; opacity: 0.6"/>
   </g>
   <g id="patch_146">
    <path d="M 195.641006 98.358594 
L 196.736786 98.358594 
L 196.736786 98.358594 
L 195.641006 98.358594 
z
" clip-path="url(#p43873344a0)" style="fill: #6366c9; opacity: 0.6"/>
   </g>
   <g id="patch_147">
    <path d="M 196.736786 98.358594 
L 197.832565 98.358594 
L 197.832565 98.358594 
L 196.736786 98.358594 
z
" clip-path="url(#p43873344a0)" style="fill: #6366c9; opacity: 0.6"/>
   </g>
   <g id="patch_148">
    <path d="M 197.832565 98.358594 
L 198.928344 98.358594 
L 198.928344 98.358594 
L 197.832565 98.358594 
z
" clip-path="url(#p43873344a0)" style="fill: #6366c9; opacity: 0.6"/>
   </g>
   <g id="patch_149">
    <path d="M 198.928344 98.358594 
L 200.024123 98.358594 
L 200.024123 98.358594 
L 198.928344 98.358594 
z
" clip-path="url(#p43873344a0)" style="fill: #6366c9; opacity: 0.6"/>
   </g>
   <g id="patch_150">
    <path d="M 200.024123 98.358594 
L 201.119903 98.358594 
L 201.119903 98.358594 
L 200.024123 98.358594 
z
" clip-path="url(#p43873344a0)" style="fill: #6366c9; opacity: 0.6"/>
   </g>
   <g id="patch_151">
    <path d="M 201.119903 98.358594 
L 202.215682 98.358594 
L 202.215682 98.311739 
L 201.119903 98.311739 
z
" clip-path="url(#p43873344a0)" style="fill: #6366c9; opacity: 0.6"/>
   </g>
   <g id="patch_152">
    <path d="M 202.215682 98.358594 
L 203.311461 98.358594 
L 203.311461 98.218029 
L 202.215682 98.218029 
z
" clip-path="url(#p43873344a0)" style="fill: #6366c9; opacity: 0.6"/>
   </g>
   <g id="patch_153">
    <path d="M 203.311461 98.358594 
L 204.40724 98.358594 
L 204.40724 97.890044 
L 203.311461 97.890044 
z
" clip-path="url(#p43873344a0)" style="fill: #6366c9; opacity: 0.6"/>
   </g>
   <g id="patch_154">
    <path d="M 204.40724 98.358594 
L 205.503019 98.358594 
L 205.503019 97.983754 
L 204.40724 97.983754 
z
" clip-path="url(#p43873344a0)" style="fill: #6366c9; opacity: 0.6"/>
   </g>
   <g id="patch_155">
    <path d="M 205.503019 98.358594 
L 206.598799 98.358594 
L 206.598799 95.875279 
L 205.503019 95.875279 
z
" clip-path="url(#p43873344a0)" style="fill: #6366c9; opacity: 0.6"/>
   </g>
   <g id="patch_156">
    <path d="M 206.598799 98.358594 
L 207.694578 98.358594 
L 207.694578 93.62624 
L 206.598799 93.62624 
z
" clip-path="url(#p43873344a0)" style="fill: #6366c9; opacity: 0.6"/>
   </g>
   <g id="patch_157">
    <path d="M 207.694578 98.358594 
L 208.790357 98.358594 
L 208.790357 88.425336 
L 207.694578 88.425336 
z
" clip-path="url(#p43873344a0)" style="fill: #6366c9; opacity: 0.6"/>
   </g>
   <g id="patch_158">
    <path d="M 208.790357 98.358594 
L 209.886136 98.358594 
L 209.886136 83.505562 
L 208.790357 83.505562 
z
" clip-path="url(#p43873344a0)" style="fill: #6366c9; opacity: 0.6"/>
   </g>
   <g id="patch_159">
    <path d="M 209.886136 98.358594 
L 210.981916 98.358594 
L 210.981916 74.977953 
L 209.886136 74.977953 
z
" clip-path="url(#p43873344a0)" style="fill: #6366c9; opacity: 0.6"/>
   </g>
   <g id="patch_160">
    <path d="M 210.981916 98.358594 
L 212.077695 98.358594 
L 212.077695 64.107596 
L 210.981916 64.107596 
z
" clip-path="url(#p43873344a0)" style="fill: #6366c9; opacity: 0.6"/>
   </g>
   <g id="patch_161">
    <path d="M 212.077695 98.358594 
L 213.173474 98.358594 
L 213.173474 53.612078 
L 212.077695 53.612078 
z
" clip-path="url(#p43873344a0)" style="fill: #6366c9; opacity: 0.6"/>
   </g>
   <g id="patch_162">
    <path d="M 213.173474 98.358594 
L 214.269253 98.358594 
L 214.269253 46.302699 
L 213.173474 46.302699 
z
" clip-path="url(#p43873344a0)" style="fill: #6366c9; opacity: 0.6"/>
   </g>
   <g id="patch_163">
    <path d="M 214.269253 98.358594 
L 215.365032 98.358594 
L 215.365032 33.323867 
L 214.269253 33.323867 
z
" clip-path="url(#p43873344a0)" style="fill: #6366c9; opacity: 0.6"/>
   </g>
   <g id="patch_164">
    <path d="M 215.365032 98.358594 
L 216.460812 98.358594 
L 216.460812 25.686503 
L 215.365032 25.686503 
z
" clip-path="url(#p43873344a0)" style="fill: #6366c9; opacity: 0.6"/>
   </g>
   <g id="patch_165">
    <path d="M 216.460812 98.358594 
L 217.556591 98.358594 
L 217.556591 22.734639 
L 216.460812 22.734639 
z
" clip-path="url(#p43873344a0)" style="fill: #6366c9; opacity: 0.6"/>
   </g>
   <g id="patch_166">
    <path d="M 217.556591 98.358594 
L 218.65237 98.358594 
L 218.65237 15.42526 
L 217.556591 15.42526 
z
" clip-path="url(#p43873344a0)" style="fill: #6366c9; opacity: 0.6"/>
   </g>
   <g id="patch_167">
    <path d="M 218.65237 98.358594 
L 219.748149 98.358594 
L 219.748149 17.39317 
L 218.65237 17.39317 
z
" clip-path="url(#p43873344a0)" style="fill: #6366c9; opacity: 0.6"/>
   </g>
   <g id="patch_168">
    <path d="M 219.748149 98.358594 
L 220.843929 98.358594 
L 220.843929 18.70511 
L 219.748149 18.70511 
z
" clip-path="url(#p43873344a0)" style="fill: #6366c9; opacity: 0.6"/>
   </g>
   <g id="patch_169">
    <path d="M 220.843929 98.358594 
L 221.939708 98.358594 
L 221.939708 19.689065 
L 220.843929 19.689065 
z
" clip-path="url(#p43873344a0)" style="fill: #6366c9; opacity: 0.6"/>
   </g>
   <g id="patch_170">
    <path d="M 221.939708 98.358594 
L 223.035487 98.358594 
L 223.035487 25.733358 
L 221.939708 25.733358 
z
" clip-path="url(#p43873344a0)" style="fill: #6366c9; opacity: 0.6"/>
   </g>
   <g id="patch_171">
    <path d="M 223.035487 98.358594 
L 224.131266 98.358594 
L 224.131266 29.622323 
L 223.035487 29.622323 
z
" clip-path="url(#p43873344a0)" style="fill: #6366c9; opacity: 0.6"/>
   </g>
   <g id="patch_172">
    <path d="M 224.131266 98.358594 
L 225.227045 98.358594 
L 225.227045 32.995882 
L 224.131266 32.995882 
z
" clip-path="url(#p43873344a0)" style="fill: #6366c9; opacity: 0.6"/>
   </g>
   <g id="patch_173">
    <path d="M 225.227045 98.358594 
L 226.322825 98.358594 
L 226.322825 37.259686 
L 225.227045 37.259686 
z
" clip-path="url(#p43873344a0)" style="fill: #6366c9; opacity: 0.6"/>
   </g>
   <g id="patch_174">
    <path d="M 226.322825 98.358594 
L 227.418604 98.358594 
L 227.418604 46.302699 
L 226.322825 46.302699 
z
" clip-path="url(#p43873344a0)" style="fill: #6366c9; opacity: 0.6"/>
   </g>
   <g id="patch_175">
    <path d="M 227.418604 98.358594 
L 228.514383 98.358594 
L 228.514383 52.674978 
L 227.418604 52.674978 
z
" clip-path="url(#p43873344a0)" style="fill: #6366c9; opacity: 0.6"/>
   </g>
   <g id="patch_176">
    <path d="M 228.514383 98.358594 
L 229.610162 98.358594 
L 229.610162 58.157012 
L 228.514383 58.157012 
z
" clip-path="url(#p43873344a0)" style="fill: #6366c9; opacity: 0.6"/>
   </g>
   <g id="patch_177">
    <path d="M 229.610162 98.358594 
L 230.705942 98.358594 
L 230.705942 62.092831 
L 229.610162 62.092831 
z
" clip-path="url(#p43873344a0)" style="fill: #6366c9; opacity: 0.6"/>
   </g>
   <g id="patch_178">
    <path d="M 230.705942 98.358594 
L 231.801721 98.358594 
L 231.801721 65.888085 
L 230.705942 65.888085 
z
" clip-path="url(#p43873344a0)" style="fill: #6366c9; opacity: 0.6"/>
   </g>
   <g id="patch_179">
    <path d="M 231.801721 98.358594 
L 232.8975 98.358594 
L 232.8975 71.979234 
L 231.801721 71.979234 
z
" clip-path="url(#p43873344a0)" style="fill: #6366c9; opacity: 0.6"/>
   </g>
   <g id="patch_180">
    <path d="M 232.8975 98.358594 
L 233.993279 98.358594 
L 233.993279 75.118518 
L 232.8975 75.118518 
z
" clip-path="url(#p43873344a0)" style="fill: #6366c9; opacity: 0.6"/>
   </g>
   <g id="patch_181">
    <path d="M 233.993279 98.358594 
L 235.089058 98.358594 
L 235.089058 77.180138 
L 233.993279 77.180138 
z
" clip-path="url(#p43873344a0)" style="fill: #6366c9; opacity: 0.6"/>
   </g>
   <g id="patch_182">
    <path d="M 235.089058 98.358594 
L 236.184838 98.358594 
L 236.184838 81.537652 
L 235.089058 81.537652 
z
" clip-path="url(#p43873344a0)" style="fill: #6366c9; opacity: 0.6"/>
   </g>
   <g id="patch_183">
    <path d="M 236.184838 98.358594 
L 237.280617 98.358594 
L 237.280617 82.802737 
L 236.184838 82.802737 
z
" clip-path="url(#p43873344a0)" style="fill: #6366c9; opacity: 0.6"/>
   </g>
   <g id="patch_184">
    <path d="M 237.280617 98.358594 
L 238.376396 98.358594 
L 238.376396 85.379761 
L 237.280617 85.379761 
z
" clip-path="url(#p43873344a0)" style="fill: #6366c9; opacity: 0.6"/>
   </g>
   <g id="patch_185">
    <path d="M 238.376396 98.358594 
L 239.472175 98.358594 
L 239.472175 87.956786 
L 238.376396 87.956786 
z
" clip-path="url(#p43873344a0)" style="fill: #6366c9; opacity: 0.6"/>
   </g>
   <g id="patch_186">
    <path d="M 239.472175 98.358594 
L 240.567955 98.358594 
L 240.567955 88.378481 
L 239.472175 88.378481 
z
" clip-path="url(#p43873344a0)" style="fill: #6366c9; opacity: 0.6"/>
   </g>
   <g id="patch_187">
    <path d="M 240.567955 98.358594 
L 241.663734 98.358594 
L 241.663734 89.362436 
L 240.567955 89.362436 
z
" clip-path="url(#p43873344a0)" style="fill: #6366c9; opacity: 0.6"/>
   </g>
   <g id="patch_188">
    <path d="M 241.663734 98.358594 
L 242.759513 98.358594 
L 242.759513 91.56462 
L 241.663734 91.56462 
z
" clip-path="url(#p43873344a0)" style="fill: #6366c9; opacity: 0.6"/>
   </g>
   <g id="patch_189">
    <path d="M 242.759513 98.358594 
L 243.855292 98.358594 
L 243.855292 91.09607 
L 242.759513 91.09607 
z
" clip-path="url(#p43873344a0)" style="fill: #6366c9; opacity: 0.6"/>
   </g>
   <g id="patch_190">
    <path d="M 243.855292 98.358594 
L 244.951071 98.358594 
L 244.951071 92.97027 
L 243.855292 92.97027 
z
" clip-path="url(#p43873344a0)" style="fill: #6366c9; opacity: 0.6"/>
   </g>
   <g id="patch_191">
    <path d="M 244.951071 98.358594 
L 246.046851 98.358594 
L 246.046851 93.06398 
L 244.951071 93.06398 
z
" clip-path="url(#p43873344a0)" style="fill: #6366c9; opacity: 0.6"/>
   </g>
   <g id="patch_192">
    <path d="M 246.046851 98.358594 
L 247.14263 98.358594 
L 247.14263 94.047935 
L 246.046851 94.047935 
z
" clip-path="url(#p43873344a0)" style="fill: #6366c9; opacity: 0.6"/>
   </g>
   <g id="patch_193">
    <path d="M 247.14263 98.358594 
L 248.238409 98.358594 
L 248.238409 94.657049 
L 247.14263 94.657049 
z
" clip-path="url(#p43873344a0)" style="fill: #6366c9; opacity: 0.6"/>
   </g>
   <g id="patch_194">
    <path d="M 248.238409 98.358594 
L 249.334188 98.358594 
L 249.334188 95.453584 
L 248.238409 95.453584 
z
" clip-path="url(#p43873344a0)" style="fill: #6366c9; opacity: 0.6"/>
   </g>
   <g id="patch_195">
    <path d="M 249.334188 98.358594 
L 250.429968 98.358594 
L 250.429968 95.359874 
L 249.334188 95.359874 
z
" clip-path="url(#p43873344a0)" style="fill: #6366c9; opacity: 0.6"/>
   </g>
   <g id="patch_196">
    <path d="M 250.429968 98.358594 
L 251.525747 98.358594 
L 251.525747 95.968989 
L 250.429968 95.968989 
z
" clip-path="url(#p43873344a0)" style="fill: #6366c9; opacity: 0.6"/>
   </g>
   <g id="patch_197">
    <path d="M 251.525747 98.358594 
L 252.621526 98.358594 
L 252.621526 96.437539 
L 251.525747 96.437539 
z
" clip-path="url(#p43873344a0)" style="fill: #6366c9; opacity: 0.6"/>
   </g>
   <g id="patch_198">
    <path d="M 252.621526 98.358594 
L 253.717305 98.358594 
L 253.717305 96.156409 
L 252.621526 96.156409 
z
" clip-path="url(#p43873344a0)" style="fill: #6366c9; opacity: 0.6"/>
   </g>
   <g id="patch_199">
    <path d="M 253.717305 98.358594 
L 254.813084 98.358594 
L 254.813084 96.296974 
L 253.717305 96.296974 
z
" clip-path="url(#p43873344a0)" style="fill: #6366c9; opacity: 0.6"/>
   </g>
   <g id="patch_200">
    <path d="M 254.813084 98.358594 
L 255.908864 98.358594 
L 255.908864 96.671814 
L 254.813084 96.671814 
z
" clip-path="url(#p43873344a0)" style="fill: #6366c9; opacity: 0.6"/>
   </g>
   <g id="patch_201">
    <path d="M 255.908864 98.358594 
L 257.004643 98.358594 
L 257.004643 97.374639 
L 255.908864 97.374639 
z
" clip-path="url(#p43873344a0)" style="fill: #6366c9; opacity: 0.6"/>
   </g>
   <g id="patch_202">
    <path d="M 257.004643 98.358594 
L 258.100422 98.358594 
L 258.100422 97.093509 
L 257.004643 97.093509 
z
" clip-path="url(#p43873344a0)" style="fill: #6366c9; opacity: 0.6"/>
   </g>
   <g id="patch_203">
    <path d="M 258.100422 98.358594 
L 259.196201 98.358594 
L 259.196201 96.952944 
L 258.100422 96.952944 
z
" clip-path="url(#p43873344a0)" style="fill: #6366c9; opacity: 0.6"/>
   </g>
   <g id="patch_204">
    <path d="M 259.196201 98.358594 
L 260.291981 98.358594 
L 260.291981 97.515204 
L 259.196201 97.515204 
z
" clip-path="url(#p43873344a0)" style="fill: #6366c9; opacity: 0.6"/>
   </g>
   <g id="patch_205">
    <path d="M 260.291981 98.358594 
L 261.38776 98.358594 
L 261.38776 97.374639 
L 260.291981 97.374639 
z
" clip-path="url(#p43873344a0)" style="fill: #6366c9; opacity: 0.6"/>
   </g>
   <g id="patch_206">
    <path d="M 261.38776 98.358594 
L 262.483539 98.358594 
L 262.483539 97.796334 
L 261.38776 97.796334 
z
" clip-path="url(#p43873344a0)" style="fill: #6366c9; opacity: 0.6"/>
   </g>
   <g id="patch_207">
    <path d="M 262.483539 98.358594 
L 263.579318 98.358594 
L 263.579318 97.843189 
L 262.483539 97.843189 
z
" clip-path="url(#p43873344a0)" style="fill: #6366c9; opacity: 0.6"/>
   </g>
   <g id="patch_208">
    <path d="M 263.579318 98.358594 
L 264.675097 98.358594 
L 264.675097 98.124319 
L 263.579318 98.124319 
z
" clip-path="url(#p43873344a0)" style="fill: #6366c9; opacity: 0.6"/>
   </g>
   <g id="patch_209">
    <path d="M 264.675097 98.358594 
L 265.770877 98.358594 
L 265.770877 97.936899 
L 264.675097 97.936899 
z
" clip-path="url(#p43873344a0)" style="fill: #6366c9; opacity: 0.6"/>
   </g>
   <g id="patch_210">
    <path d="M 265.770877 98.358594 
L 266.866656 98.358594 
L 266.866656 97.890044 
L 265.770877 97.890044 
z
" clip-path="url(#p43873344a0)" style="fill: #6366c9; opacity: 0.6"/>
   </g>
   <g id="patch_211">
    <path d="M 266.866656 98.358594 
L 267.962435 98.358594 
L 267.962435 97.796334 
L 266.866656 97.796334 
z
" clip-path="url(#p43873344a0)" style="fill: #6366c9; opacity: 0.6"/>
   </g>
   <g id="patch_212">
    <path d="M 267.962435 98.358594 
L 269.058214 98.358594 
L 269.058214 97.983754 
L 267.962435 97.983754 
z
" clip-path="url(#p43873344a0)" style="fill: #6366c9; opacity: 0.6"/>
   </g>
   <g id="patch_213">
    <path d="M 269.058214 98.358594 
L 270.153994 98.358594 
L 270.153994 98.077464 
L 269.058214 98.077464 
z
" clip-path="url(#p43873344a0)" style="fill: #6366c9; opacity: 0.6"/>
   </g>
   <g id="patch_214">
    <path d="M 270.153994 98.358594 
L 271.249773 98.358594 
L 271.249773 98.077464 
L 270.153994 98.077464 
z
" clip-path="url(#p43873344a0)" style="fill: #6366c9; opacity: 0.6"/>
   </g>
   <g id="matplotlib.axis_5">
    <g id="text_5">
     <!-- skew 1.64 -->
     <g style="fill: #6e7686" transform="translate(212.7325 108.437344) scale(0.08 -0.08)">
      <use xlink:href="#DejaVuSans-73"/>
      <use xlink:href="#DejaVuSans-6b" transform="translate(52.099609 0)"/>
      <use xlink:href="#DejaVuSans-65" transform="translate(106.384766 0)"/>
      <use xlink:href="#DejaVuSans-77" transform="translate(167.908203 0)"/>
      <use xlink:href="#DejaVuSans-20" transform="translate(249.695312 0)"/>
      <use xlink:href="#DejaVuSans-31" transform="translate(281.482422 0)"/>
      <use xlink:href="#DejaVuSans-2e" transform="translate(345.105469 0)"/>
      <use xlink:href="#DejaVuSans-36" transform="translate(376.892578 0)"/>
      <use xlink:href="#DejaVuSans-34" transform="translate(440.515625 0)"/>
     </g>
    </g>
   </g>
   <g id="matplotlib.axis_6"/>
   <g id="text_6">
    <!-- $n = 200$ -->
    <g style="fill: #6e7686" transform="translate(190.71 8.278594) scale(0.09 -0.09)">
     <use xlink:href="#DejaVuSans-Oblique-6e" transform="translate(0 0.78125)"/>
     <use xlink:href="#DejaVuSans-3d" transform="translate(82.861328 0.78125)"/>
     <use xlink:href="#DejaVuSans-32" transform="translate(186.132812 0.78125)"/>
     <use xlink:href="#DejaVuSans-30" transform="translate(249.755859 0.78125)"/>
     <use xlink:href="#DejaVuSans-30" transform="translate(313.378906 0.78125)"/>
    </g>
   </g>
  </g>
  <g id="axes_4">
   <g id="patch_215">
    <path d="M 285.345 98.358594 
L 369.72 98.358594 
L 369.72 11.278594 
L 285.345 11.278594 
L 285.345 98.358594 
z
" style="fill: none"/>
   </g>
   <g id="patch_216">
    <path d="M 289.180227 98.358594 
L 290.276006 98.358594 
L 290.276006 98.358594 
L 289.180227 98.358594 
z
" clip-path="url(#pf0a52d149e)" style="fill: #6366c9; opacity: 0.6"/>
   </g>
   <g id="patch_217">
    <path d="M 290.276006 98.358594 
L 291.371786 98.358594 
L 291.371786 98.277366 
L 290.276006 98.277366 
z
" clip-path="url(#pf0a52d149e)" style="fill: #6366c9; opacity: 0.6"/>
   </g>
   <g id="patch_218">
    <path d="M 291.371786 98.358594 
L 292.467565 98.358594 
L 292.467565 98.277366 
L 291.371786 98.277366 
z
" clip-path="url(#pf0a52d149e)" style="fill: #6366c9; opacity: 0.6"/>
   </g>
   <g id="patch_219">
    <path d="M 292.467565 98.358594 
L 293.563344 98.358594 
L 293.563344 98.114911 
L 292.467565 98.114911 
z
" clip-path="url(#pf0a52d149e)" style="fill: #6366c9; opacity: 0.6"/>
   </g>
   <g id="patch_220">
    <path d="M 293.563344 98.358594 
L 294.659123 98.358594 
L 294.659123 98.033684 
L 293.563344 98.033684 
z
" clip-path="url(#pf0a52d149e)" style="fill: #6366c9; opacity: 0.6"/>
   </g>
   <g id="patch_221">
    <path d="M 294.659123 98.358594 
L 295.754903 98.358594 
L 295.754903 97.465091 
L 294.659123 97.465091 
z
" clip-path="url(#pf0a52d149e)" style="fill: #6366c9; opacity: 0.6"/>
   </g>
   <g id="patch_222">
    <path d="M 295.754903 98.358594 
L 296.850682 98.358594 
L 296.850682 96.409132 
L 295.754903 96.409132 
z
" clip-path="url(#pf0a52d149e)" style="fill: #6366c9; opacity: 0.6"/>
   </g>
   <g id="patch_223">
    <path d="M 296.850682 98.358594 
L 297.946461 98.358594 
L 297.946461 95.678084 
L 296.850682 95.678084 
z
" clip-path="url(#pf0a52d149e)" style="fill: #6366c9; opacity: 0.6"/>
   </g>
   <g id="patch_224">
    <path d="M 297.946461 98.358594 
L 299.04224 98.358594 
L 299.04224 94.784581 
L 297.946461 94.784581 
z
" clip-path="url(#pf0a52d149e)" style="fill: #6366c9; opacity: 0.6"/>
   </g>
   <g id="patch_225">
    <path d="M 299.04224 98.358594 
L 300.138019 98.358594 
L 300.138019 90.804431 
L 299.04224 90.804431 
z
" clip-path="url(#pf0a52d149e)" style="fill: #6366c9; opacity: 0.6"/>
   </g>
   <g id="patch_226">
    <path d="M 300.138019 98.358594 
L 301.233799 98.358594 
L 301.233799 88.936197 
L 300.138019 88.936197 
z
" clip-path="url(#pf0a52d149e)" style="fill: #6366c9; opacity: 0.6"/>
   </g>
   <g id="patch_227">
    <path d="M 301.233799 98.358594 
L 302.329578 98.358594 
L 302.329578 83.818861 
L 301.233799 83.818861 
z
" clip-path="url(#pf0a52d149e)" style="fill: #6366c9; opacity: 0.6"/>
   </g>
   <g id="patch_228">
    <path d="M 302.329578 98.358594 
L 303.425357 98.358594 
L 303.425357 76.995747 
L 302.329578 76.995747 
z
" clip-path="url(#pf0a52d149e)" style="fill: #6366c9; opacity: 0.6"/>
   </g>
   <g id="patch_229">
    <path d="M 303.425357 98.358594 
L 304.521136 98.358594 
L 304.521136 73.502962 
L 303.425357 73.502962 
z
" clip-path="url(#pf0a52d149e)" style="fill: #6366c9; opacity: 0.6"/>
   </g>
   <g id="patch_230">
    <path d="M 304.521136 98.358594 
L 305.616916 98.358594 
L 305.616916 61.400056 
L 304.521136 61.400056 
z
" clip-path="url(#pf0a52d149e)" style="fill: #6366c9; opacity: 0.6"/>
   </g>
   <g id="patch_231">
    <path d="M 305.616916 98.358594 
L 306.712695 98.358594 
L 306.712695 58.882002 
L 305.616916 58.882002 
z
" clip-path="url(#pf0a52d149e)" style="fill: #6366c9; opacity: 0.6"/>
   </g>
   <g id="patch_232">
    <path d="M 306.712695 98.358594 
L 307.808474 98.358594 
L 307.808474 50.190654 
L 306.712695 50.190654 
z
" clip-path="url(#pf0a52d149e)" style="fill: #6366c9; opacity: 0.6"/>
   </g>
   <g id="patch_233">
    <path d="M 307.808474 98.358594 
L 308.904253 98.358594 
L 308.904253 45.317001 
L 307.808474 45.317001 
z
" clip-path="url(#pf0a52d149e)" style="fill: #6366c9; opacity: 0.6"/>
   </g>
   <g id="patch_234">
    <path d="M 308.904253 98.358594 
L 310.000032 98.358594 
L 310.000032 33.132867 
L 308.904253 33.132867 
z
" clip-path="url(#pf0a52d149e)" style="fill: #6366c9; opacity: 0.6"/>
   </g>
   <g id="patch_235">
    <path d="M 310.000032 98.358594 
L 311.095812 98.358594 
L 311.095812 27.284483 
L 310.000032 27.284483 
z
" clip-path="url(#pf0a52d149e)" style="fill: #6366c9; opacity: 0.6"/>
   </g>
   <g id="patch_236">
    <path d="M 311.095812 98.358594 
L 312.191591 98.358594 
L 312.191591 31.589544 
L 311.095812 31.589544 
z
" clip-path="url(#pf0a52d149e)" style="fill: #6366c9; opacity: 0.6"/>
   </g>
   <g id="patch_237">
    <path d="M 312.191591 98.358594 
L 313.28737 98.358594 
L 313.28737 22.329603 
L 312.191591 22.329603 
z
" clip-path="url(#pf0a52d149e)" style="fill: #6366c9; opacity: 0.6"/>
   </g>
   <g id="patch_238">
    <path d="M 313.28737 98.358594 
L 314.383149 98.358594 
L 314.383149 18.593135 
L 313.28737 18.593135 
z
" clip-path="url(#pf0a52d149e)" style="fill: #6366c9; opacity: 0.6"/>
   </g>
   <g id="patch_239">
    <path d="M 314.383149 98.358594 
L 315.478929 98.358594 
L 315.478929 15.42526 
L 314.383149 15.42526 
z
" clip-path="url(#pf0a52d149e)" style="fill: #6366c9; opacity: 0.6"/>
   </g>
   <g id="patch_240">
    <path d="M 315.478929 98.358594 
L 316.574708 98.358594 
L 316.574708 16.887356 
L 315.478929 16.887356 
z
" clip-path="url(#pf0a52d149e)" style="fill: #6366c9; opacity: 0.6"/>
   </g>
   <g id="patch_241">
    <path d="M 316.574708 98.358594 
L 317.670487 98.358594 
L 317.670487 18.593135 
L 316.574708 18.593135 
z
" clip-path="url(#pf0a52d149e)" style="fill: #6366c9; opacity: 0.6"/>
   </g>
   <g id="patch_242">
    <path d="M 317.670487 98.358594 
L 318.766266 98.358594 
L 318.766266 24.522747 
L 317.670487 24.522747 
z
" clip-path="url(#pf0a52d149e)" style="fill: #6366c9; opacity: 0.6"/>
   </g>
   <g id="patch_243">
    <path d="M 318.766266 98.358594 
L 319.862045 98.358594 
L 319.862045 26.147298 
L 318.766266 26.147298 
z
" clip-path="url(#pf0a52d149e)" style="fill: #6366c9; opacity: 0.6"/>
   </g>
   <g id="patch_244">
    <path d="M 319.862045 98.358594 
L 320.957825 98.358594 
L 320.957825 32.401819 
L 319.862045 32.401819 
z
" clip-path="url(#pf0a52d149e)" style="fill: #6366c9; opacity: 0.6"/>
   </g>
   <g id="patch_245">
    <path d="M 320.957825 98.358594 
L 322.053604 98.358594 
L 322.053604 36.463197 
L 320.957825 36.463197 
z
" clip-path="url(#pf0a52d149e)" style="fill: #6366c9; opacity: 0.6"/>
   </g>
   <g id="patch_246">
    <path d="M 322.053604 98.358594 
L 323.149383 98.358594 
L 323.149383 38.981251 
L 322.053604 38.981251 
z
" clip-path="url(#pf0a52d149e)" style="fill: #6366c9; opacity: 0.6"/>
   </g>
   <g id="patch_247">
    <path d="M 323.149383 98.358594 
L 324.245162 98.358594 
L 324.245162 44.829635 
L 323.149383 44.829635 
z
" clip-path="url(#pf0a52d149e)" style="fill: #6366c9; opacity: 0.6"/>
   </g>
   <g id="patch_248">
    <path d="M 324.245162 98.358594 
L 325.340942 98.358594 
L 325.340942 51.246612 
L 324.245162 51.246612 
z
" clip-path="url(#pf0a52d149e)" style="fill: #6366c9; opacity: 0.6"/>
   </g>
   <g id="patch_249">
    <path d="M 325.340942 98.358594 
L 326.436721 98.358594 
L 326.436721 54.658169 
L 325.340942 54.658169 
z
" clip-path="url(#pf0a52d149e)" style="fill: #6366c9; opacity: 0.6"/>
   </g>
   <g id="patch_250">
    <path d="M 326.436721 98.358594 
L 327.5325 98.358594 
L 327.5325 58.882002 
L 326.436721 58.882002 
z
" clip-path="url(#pf0a52d149e)" style="fill: #6366c9; opacity: 0.6"/>
   </g>
   <g id="patch_251">
    <path d="M 327.5325 98.358594 
L 328.628279 98.358594 
L 328.628279 66.59862 
L 327.5325 66.59862 
z
" clip-path="url(#pf0a52d149e)" style="fill: #6366c9; opacity: 0.6"/>
   </g>
   <g id="patch_252">
    <path d="M 328.628279 98.358594 
L 329.724058 98.358594 
L 329.724058 69.035447 
L 328.628279 69.035447 
z
" clip-path="url(#pf0a52d149e)" style="fill: #6366c9; opacity: 0.6"/>
   </g>
   <g id="patch_253">
    <path d="M 329.724058 98.358594 
L 330.819838 98.358594 
L 330.819838 72.284549 
L 329.724058 72.284549 
z
" clip-path="url(#pf0a52d149e)" style="fill: #6366c9; opacity: 0.6"/>
   </g>
   <g id="patch_254">
    <path d="M 330.819838 98.358594 
L 331.915617 98.358594 
L 331.915617 77.56434 
L 330.819838 77.56434 
z
" clip-path="url(#pf0a52d149e)" style="fill: #6366c9; opacity: 0.6"/>
   </g>
   <g id="patch_255">
    <path d="M 331.915617 98.358594 
L 333.011396 98.358594 
L 333.011396 77.726795 
L 331.915617 77.726795 
z
" clip-path="url(#pf0a52d149e)" style="fill: #6366c9; opacity: 0.6"/>
   </g>
   <g id="patch_256">
    <path d="M 333.011396 98.358594 
L 334.107175 98.358594 
L 334.107175 82.356765 
L 333.011396 82.356765 
z
" clip-path="url(#pf0a52d149e)" style="fill: #6366c9; opacity: 0.6"/>
   </g>
   <g id="patch_257">
    <path d="M 334.107175 98.358594 
L 335.202955 98.358594 
L 335.202955 84.87482 
L 334.107175 84.87482 
z
" clip-path="url(#pf0a52d149e)" style="fill: #6366c9; opacity: 0.6"/>
   </g>
   <g id="patch_258">
    <path d="M 335.202955 98.358594 
L 336.298734 98.358594 
L 336.298734 85.280957 
L 335.202955 85.280957 
z
" clip-path="url(#pf0a52d149e)" style="fill: #6366c9; opacity: 0.6"/>
   </g>
   <g id="patch_259">
    <path d="M 336.298734 98.358594 
L 337.394513 98.358594 
L 337.394513 88.85497 
L 336.298734 88.85497 
z
" clip-path="url(#pf0a52d149e)" style="fill: #6366c9; opacity: 0.6"/>
   </g>
   <g id="patch_260">
    <path d="M 337.394513 98.358594 
L 338.490292 98.358594 
L 338.490292 90.317066 
L 337.394513 90.317066 
z
" clip-path="url(#pf0a52d149e)" style="fill: #6366c9; opacity: 0.6"/>
   </g>
   <g id="patch_261">
    <path d="M 338.490292 98.358594 
L 339.586071 98.358594 
L 339.586071 91.291796 
L 338.490292 91.291796 
z
" clip-path="url(#pf0a52d149e)" style="fill: #6366c9; opacity: 0.6"/>
   </g>
   <g id="patch_262">
    <path d="M 339.586071 98.358594 
L 340.681851 98.358594 
L 340.681851 91.210569 
L 339.586071 91.210569 
z
" clip-path="url(#pf0a52d149e)" style="fill: #6366c9; opacity: 0.6"/>
   </g>
   <g id="patch_263">
    <path d="M 340.681851 98.358594 
L 341.77763 98.358594 
L 341.77763 92.83512 
L 340.681851 92.83512 
z
" clip-path="url(#pf0a52d149e)" style="fill: #6366c9; opacity: 0.6"/>
   </g>
   <g id="patch_264">
    <path d="M 341.77763 98.358594 
L 342.873409 98.358594 
L 342.873409 93.809851 
L 341.77763 93.809851 
z
" clip-path="url(#pf0a52d149e)" style="fill: #6366c9; opacity: 0.6"/>
   </g>
   <g id="patch_265">
    <path d="M 342.873409 98.358594 
L 343.969188 98.358594 
L 343.969188 94.297216 
L 342.873409 94.297216 
z
" clip-path="url(#pf0a52d149e)" style="fill: #6366c9; opacity: 0.6"/>
   </g>
   <g id="patch_266">
    <path d="M 343.969188 98.358594 
L 345.064968 98.358594 
L 345.064968 94.703354 
L 343.969188 94.703354 
z
" clip-path="url(#pf0a52d149e)" style="fill: #6366c9; opacity: 0.6"/>
   </g>
   <g id="patch_267">
    <path d="M 345.064968 98.358594 
L 346.160747 98.358594 
L 346.160747 95.353174 
L 345.064968 95.353174 
z
" clip-path="url(#pf0a52d149e)" style="fill: #6366c9; opacity: 0.6"/>
   </g>
   <g id="patch_268">
    <path d="M 346.160747 98.358594 
L 347.256526 98.358594 
L 347.256526 95.271947 
L 346.160747 95.271947 
z
" clip-path="url(#pf0a52d149e)" style="fill: #6366c9; opacity: 0.6"/>
   </g>
   <g id="patch_269">
    <path d="M 347.256526 98.358594 
L 348.352305 98.358594 
L 348.352305 96.571588 
L 347.256526 96.571588 
z
" clip-path="url(#pf0a52d149e)" style="fill: #6366c9; opacity: 0.6"/>
   </g>
   <g id="patch_270">
    <path d="M 348.352305 98.358594 
L 349.448084 98.358594 
L 349.448084 96.49036 
L 348.352305 96.49036 
z
" clip-path="url(#pf0a52d149e)" style="fill: #6366c9; opacity: 0.6"/>
   </g>
   <g id="patch_271">
    <path d="M 349.448084 98.358594 
L 350.543864 98.358594 
L 350.543864 96.896498 
L 349.448084 96.896498 
z
" clip-path="url(#pf0a52d149e)" style="fill: #6366c9; opacity: 0.6"/>
   </g>
   <g id="patch_272">
    <path d="M 350.543864 98.358594 
L 351.639643 98.358594 
L 351.639643 97.058953 
L 350.543864 97.058953 
z
" clip-path="url(#pf0a52d149e)" style="fill: #6366c9; opacity: 0.6"/>
   </g>
   <g id="patch_273">
    <path d="M 351.639643 98.358594 
L 352.735422 98.358594 
L 352.735422 97.302636 
L 351.639643 97.302636 
z
" clip-path="url(#pf0a52d149e)" style="fill: #6366c9; opacity: 0.6"/>
   </g>
   <g id="patch_274">
    <path d="M 352.735422 98.358594 
L 353.831201 98.358594 
L 353.831201 96.81527 
L 352.735422 96.81527 
z
" clip-path="url(#pf0a52d149e)" style="fill: #6366c9; opacity: 0.6"/>
   </g>
   <g id="patch_275">
    <path d="M 353.831201 98.358594 
L 354.926981 98.358594 
L 354.926981 97.708773 
L 353.831201 97.708773 
z
" clip-path="url(#pf0a52d149e)" style="fill: #6366c9; opacity: 0.6"/>
   </g>
   <g id="patch_276">
    <path d="M 354.926981 98.358594 
L 356.02276 98.358594 
L 356.02276 98.033684 
L 354.926981 98.033684 
z
" clip-path="url(#pf0a52d149e)" style="fill: #6366c9; opacity: 0.6"/>
   </g>
   <g id="patch_277">
    <path d="M 356.02276 98.358594 
L 357.118539 98.358594 
L 357.118539 97.871228 
L 356.02276 97.871228 
z
" clip-path="url(#pf0a52d149e)" style="fill: #6366c9; opacity: 0.6"/>
   </g>
   <g id="patch_278">
    <path d="M 357.118539 98.358594 
L 358.214318 98.358594 
L 358.214318 98.114911 
L 357.118539 98.114911 
z
" clip-path="url(#pf0a52d149e)" style="fill: #6366c9; opacity: 0.6"/>
   </g>
   <g id="patch_279">
    <path d="M 358.214318 98.358594 
L 359.310097 98.358594 
L 359.310097 98.196139 
L 358.214318 98.196139 
z
" clip-path="url(#pf0a52d149e)" style="fill: #6366c9; opacity: 0.6"/>
   </g>
   <g id="patch_280">
    <path d="M 359.310097 98.358594 
L 360.405877 98.358594 
L 360.405877 98.033684 
L 359.310097 98.033684 
z
" clip-path="url(#pf0a52d149e)" style="fill: #6366c9; opacity: 0.6"/>
   </g>
   <g id="patch_281">
    <path d="M 360.405877 98.358594 
L 361.501656 98.358594 
L 361.501656 98.277366 
L 360.405877 98.277366 
z
" clip-path="url(#pf0a52d149e)" style="fill: #6366c9; opacity: 0.6"/>
   </g>
   <g id="patch_282">
    <path d="M 361.501656 98.358594 
L 362.597435 98.358594 
L 362.597435 98.196139 
L 361.501656 98.196139 
z
" clip-path="url(#pf0a52d149e)" style="fill: #6366c9; opacity: 0.6"/>
   </g>
   <g id="patch_283">
    <path d="M 362.597435 98.358594 
L 363.693214 98.358594 
L 363.693214 98.277366 
L 362.597435 98.277366 
z
" clip-path="url(#pf0a52d149e)" style="fill: #6366c9; opacity: 0.6"/>
   </g>
   <g id="patch_284">
    <path d="M 363.693214 98.358594 
L 364.788994 98.358594 
L 364.788994 98.277366 
L 363.693214 98.277366 
z
" clip-path="url(#pf0a52d149e)" style="fill: #6366c9; opacity: 0.6"/>
   </g>
   <g id="patch_285">
    <path d="M 364.788994 98.358594 
L 365.884773 98.358594 
L 365.884773 98.277366 
L 364.788994 98.277366 
z
" clip-path="url(#pf0a52d149e)" style="fill: #6366c9; opacity: 0.6"/>
   </g>
   <g id="matplotlib.axis_7">
    <g id="text_7">
     <!-- skew 0.76 -->
     <g style="fill: #6e7686" transform="translate(307.3675 108.437344) scale(0.08 -0.08)">
      <defs>
       <path id="DejaVuSans-37" d="M 525 4666 
L 3525 4666 
L 3525 4397 
L 1831 0 
L 1172 0 
L 2766 4134 
L 525 4134 
L 525 4666 
z
" transform="scale(0.015625)"/>
      </defs>
      <use xlink:href="#DejaVuSans-73"/>
      <use xlink:href="#DejaVuSans-6b" transform="translate(52.099609 0)"/>
      <use xlink:href="#DejaVuSans-65" transform="translate(106.384766 0)"/>
      <use xlink:href="#DejaVuSans-77" transform="translate(167.908203 0)"/>
      <use xlink:href="#DejaVuSans-20" transform="translate(249.695312 0)"/>
      <use xlink:href="#DejaVuSans-30" transform="translate(281.482422 0)"/>
      <use xlink:href="#DejaVuSans-2e" transform="translate(345.105469 0)"/>
      <use xlink:href="#DejaVuSans-37" transform="translate(376.892578 0)"/>
      <use xlink:href="#DejaVuSans-36" transform="translate(440.515625 0)"/>
     </g>
    </g>
   </g>
   <g id="matplotlib.axis_8"/>
   <g id="text_8">
    <!-- $n = 1000$ -->
    <g style="fill: #6e7686" transform="translate(285.345 8.278594) scale(0.09 -0.09)">
     <use xlink:href="#DejaVuSans-Oblique-6e" transform="translate(0 0.78125)"/>
     <use xlink:href="#DejaVuSans-3d" transform="translate(82.861328 0.78125)"/>
     <use xlink:href="#DejaVuSans-31" transform="translate(186.132812 0.78125)"/>
     <use xlink:href="#DejaVuSans-30" transform="translate(249.755859 0.78125)"/>
     <use xlink:href="#DejaVuSans-30" transform="translate(313.378906 0.78125)"/>
     <use xlink:href="#DejaVuSans-30" transform="translate(377.001953 0.78125)"/>
    </g>
   </g>
  </g>
 </g>
 <defs>
  <clipPath id="p9c384c4252">
   <rect x="1.44" y="11.278594" width="84.375" height="87.08"/>
  </clipPath>
  <clipPath id="p414b54a635">
   <rect x="96.075" y="11.278594" width="84.375" height="87.08"/>
  </clipPath>
  <clipPath id="p43873344a0">
   <rect x="190.71" y="11.278594" width="84.375" height="87.08"/>
  </clipPath>
  <clipPath id="pf0a52d149e">
   <rect x="285.345" y="11.278594" width="84.375" height="87.08"/>
  </clipPath>
 </defs>
</svg>
