<?xml version="1.0" encoding="utf-8" standalone="no"?>
<!DOCTYPE svg PUBLIC "-//W3C//DTD SVG 1.1//EN"
  "http://www.w3.org/Graphics/SVG/1.1/DTD/svg11.dtd">
<svg xmlns:xlink="http://www.w3.org/1999/xlink" width="304.2pt" height="86.04pt" viewBox="0 0 304.2 86.04" xmlns="http://www.w3.org/2000/svg" version="1.1">
 <metadata>
  <rdf:RDF xmlns:dc="http://purl.org/dc/elements/1.1/" xmlns:cc="http://creativecommons.org/ns#" xmlns:rdf="http://www.w3.org/1999/02/22-rdf-syntax-ns#">
   <cc:Work>
    <dc:type rdf:resource="http://purl.org/dc/dcmitype/StillImage"/>
    <dc:date>2026-09-24T11:00:25.791506</dc:date>
    <dc:format>image/svg+xml</dc:format>
    <dc:creator>
     <cc:Agent>
      <dc:title>Matplotlib v3.10.8, https://matplotlib.org/</dc:title>
     </cc:Agent>
    </dc:creator>
   </cc:Work>
  </rdf:RDF>
 </metadata>
 <defs>
  <style type="text/css">*{stroke-linejoin: round; stroke-linecap: butt}</style>
 </defs>
 <g id="figure_1">
  <g id="patch_1">
   <path d="M -0 86.04 
L 304.2 86.04 
L 304.2 0 
L -0 0 
L -0 86.04 
z
" style="fill: none"/>
  </g>
  <g id="axes_1">
   <g id="patch_2">
    <path d="M 1.44 84.6 
L 302.76 84.6 
L 302.76 1.44 
L 1.44 1.44 
L 1.44 84.6 
z
" style="fill: none"/>
   </g>
   <g id="matplotlib.axis_1"/>
   <g id="matplotlib.axis_2"/>
   <g id="patch_3">
    <path d="M 9.063759 52.848 
L 66.42347 52.848 
Q 70.779904 52.848 70.779904 48.312 
L 70.779904 18.828 
Q 70.779904 14.292 66.42347 14.292 
L 9.063759 14.292 
Q 4.707325 14.292 4.707325 18.828 
L 4.707325 48.312 
Q 4.707325 52.848 9.063759 52.848 
L 9.063759 52.848 
z
" clip-path="url(#pc3665683c6)" style="fill: none; stroke: #6e7686; stroke-width: 1.6; stroke-linejoin: miter"/>
   </g>
   <g id="patch_4">
    <path d="M 112.52906 52.848 
L 169.888771 52.848 
Q 174.245205 52.848 174.245205 48.312 
L 174.245205 18.828 
Q 174.245205 14.292 169.888771 14.292 
L 112.52906 14.292 
Q 108.172627 14.292 108.172627 18.828 
L 108.172627 48.312 
Q 108.172627 52.848 112.52906 52.848 
L 112.52906 52.848 
z
" clip-path="url(#pc3665683c6)" style="fill: none; stroke: #6366c9; stroke-width: 1.6; stroke-linejoin: miter"/>
   </g>
   <g id="patch_5">
    <path d="M 235.961349 52.848 
L 293.32106 52.848 
Q 297.677494 52.848 297.677494 48.312 
L 297.677494 18.828 
Q 297.677494 14.292 293.32106 14.292 
L 235.961349 14.292 
Q 231.604916 14.292 231.604916 18.828 
L 231.604916 48.312 
Q 231.604916 52.848 235.961349 52.848 
L 235.961349 52.848 
z
" clip-path="url(#pc3665683c6)" style="fill: none; stroke: #e2703a; stroke-width: 1.6; stroke-linejoin: miter"/>
   </g>
   <g id="patch_6">
    <path d="M 68.601687 33.57 
Q 89.476265 33.57 108.561989 33.57 
" style="fill: none; stroke: #6366c9; stroke-width: 1.6; stroke-linecap: round"/>
    <path d="M 104.761989 31.67 
L 108.561989 33.57 
L 104.761989 35.47 
z
" style="fill: #6366c9; stroke: #6366c9; stroke-width: 1.6; stroke-linecap: round"/>
   </g>
   <g id="text_1">
    <!-- $\times\,2$ -->
    <g style="fill: #6366c9" transform="translate(81.686265 13.450297) scale(0.095 -0.095)">
     <defs>
      <path id="DejaVuSans-d7" d="M 4488 3438 
L 3059 2003 
L 4488 575 
L 4116 197 
L 2681 1631 
L 1247 197 
L 878 575 
L 2303 2003 
L 878 3438 
L 1247 3816 
L 2681 2381 
L 4116 3816 
L 4488 3438 
z
" transform="scale(0.015625)"/>
      <path id="DejaVuSans-32" d="M 1228 531 
L 3431 531 
L 3431 0 
L 469 0 
L 469 531 
Q 828 903 1448 1529 
Q 2069 2156 2228 2338 
Q 2531 2678 2651 2914 
Q 2772 3150 2772 3378 
Q 2772 3750 2511 3984 
Q 2250 4219 1831 4219 
Q 1534 4219 1204 4116 
Q 875 4013 500 3803 
L 500 4441 
Q 881 4594 1212 4672 
Q 1544 4750 1819 4750 
Q 2544 4750 2975 4387 
Q 3406 4025 3406 3419 
Q 3406 3131 3298 2873 
Q 3191 2616 2906 2266 
Q 2828 2175 2409 1742 
Q 1991 1309 1228 531 
z
" transform="scale(0.015625)"/>
     </defs>
     <use xlink:href="#DejaVuSans-d7" transform="translate(0 0.78125)"/>
     <use xlink:href="#DejaVuSans-32" transform="translate(100.024739 0.78125)"/>
    </g>
   </g>
   <g id="patch_7">
    <path d="M 172.066988 33.57 
Q 202.92506 33.57 231.994278 33.57 
" style="fill: none; stroke: #e2703a; stroke-width: 1.6; stroke-linecap: round"/>
    <path d="M 228.194278 31.67 
L 231.994278 33.57 
L 228.194278 35.47 
z
" style="fill: #e2703a; stroke: #e2703a; stroke-width: 1.6; stroke-linecap: round"/>
   </g>
   <g id="text_2">
    <!-- $\times\,5u^4$ -->
    <g style="fill: #e2703a" transform="translate(189.67256 13.450297) scale(0.095 -0.095)">
     <defs>
      <path id="DejaVuSans-35" d="M 691 4666 
L 3169 4666 
L 3169 4134 
L 1269 4134 
L 1269 2991 
Q 1406 3038 1543 3061 
Q 1681 3084 1819 3084 
Q 2600 3084 3056 2656 
Q 3513 2228 3513 1497 
Q 3513 744 3044 326 
Q 2575 -91 1722 -91 
Q 1428 -91 1123 -41 
Q 819 9 494 109 
L 494 744 
Q 775 591 1075 516 
Q 1375 441 1709 441 
Q 2250 441 2565 725 
Q 2881 1009 2881 1497 
Q 2881 1984 2565 2268 
Q 2250 2553 1709 2553 
Q 1456 2553 1204 2497 
Q 953 2441 691 2322 
L 691 4666 
z
" transform="scale(0.015625)"/>
      <path id="DejaVuSans-Oblique-75" d="M 428 1388 
L 838 3500 
L 1416 3500 
L 1006 1409 
Q 975 1256 961 1147 
Q 947 1038 947 966 
Q 947 700 1109 554 
Q 1272 409 1569 409 
Q 2031 409 2368 721 
Q 2706 1034 2809 1563 
L 3194 3500 
L 3769 3500 
L 3091 0 
L 2516 0 
L 2631 550 
Q 2388 244 2052 76 
Q 1716 -91 1338 -91 
Q 878 -91 622 161 
Q 366 413 366 863 
Q 366 956 381 1097 
Q 397 1238 428 1388 
z
" transform="scale(0.015625)"/>
      <path id="DejaVuSans-34" d="M 2419 4116 
L 825 1625 
L 2419 1625 
L 2419 4116 
z
M 2253 4666 
L 3047 4666 
L 3047 1625 
L 3713 1625 
L 3713 1100 
L 3047 1100 
L 3047 0 
L 2419 0 
L 2419 1100 
L 313 1100 
L 313 1709 
L 2253 4666 
z
" transform="scale(0.015625)"/>
     </defs>
     <use xlink:href="#DejaVuSans-d7" transform="translate(0 0.684375)"/>
     <use xlink:href="#DejaVuSans-35" transform="translate(100.024739 0.684375)"/>
     <use xlink:href="#DejaVuSans-Oblique-75" transform="translate(163.647786 0.684375)"/>
     <use xlink:href="#DejaVuSans-34" transform="translate(231.492838 38.965625) scale(0.7)"/>
    </g>
   </g>
   <g id="patch_8">
    <path d="M 39.745531 66.834 
Q 166.621415 66.834 291.708444 66.834 
" style="fill: none; stroke: #2aa88a; stroke-width: 1.6; stroke-linecap: round"/>
    <path d="M 287.908444 64.934 
L 291.708444 66.834 
L 287.908444 68.734 
z
" style="fill: #2aa88a; stroke: #2aa88a; stroke-width: 1.6; stroke-linecap: round"/>
   </g>
   <g id="text_3">
    <!-- overall: $\times\,10(2x+1)^4$ -->
    <g style="fill: #2aa88a" transform="translate(115.843946 79.222297) scale(0.095 -0.095)">
     <defs>
      <path id="DejaVuSans-6f" d="M 1959 3097 
Q 1497 3097 1228 2736 
Q 959 2375 959 1747 
Q 959 1119 1226 758 
Q 1494 397 1959 397 
Q 2419 397 2687 759 
Q 2956 1122 2956 1747 
Q 2956 2369 2687 2733 
Q 2419 3097 1959 3097 
z
M 1959 3584 
Q 2709 3584 3137 3096 
Q 3566 2609 3566 1747 
Q 3566 888 3137 398 
Q 2709 -91 1959 -91 
Q 1206 -91 779 398 
Q 353 888 353 1747 
Q 353 2609 779 3096 
Q 1206 3584 1959 3584 
z
" transform="scale(0.015625)"/>
      <path id="DejaVuSans-76" d="M 191 3500 
L 800 3500 
L 1894 563 
L 2988 3500 
L 3597 3500 
L 2284 0 
L 1503 0 
L 191 3500 
z
" transform="scale(0.015625)"/>
      <path id="DejaVuSans-65" d="M 3597 1894 
L 3597 1613 
L 953 1613 
Q 991 1019 1311 708 
Q 1631 397 2203 397 
Q 2534 397 2845 478 
Q 3156 559 3463 722 
L 3463 178 
Q 3153 47 2828 -22 
Q 2503 -91 2169 -91 
Q 1331 -91 842 396 
Q 353 884 353 1716 
Q 353 2575 817 3079 
Q 1281 3584 2069 3584 
Q 2775 3584 3186 3129 
Q 3597 2675 3597 1894 
z
M 3022 2063 
Q 3016 2534 2758 2815 
Q 2500 3097 2075 3097 
Q 1594 3097 1305 2825 
Q 1016 2553 972 2059 
L 3022 2063 
z
" transform="scale(0.015625)"/>
      <path id="DejaVuSans-72" d="M 2631 2963 
Q 2534 3019 2420 3045 
Q 2306 3072 2169 3072 
Q 1681 3072 1420 2755 
Q 1159 2438 1159 1844 
L 1159 0 
L 581 0 
L 581 3500 
L 1159 3500 
L 1159 2956 
Q 1341 3275 1631 3429 
Q 1922 3584 2338 3584 
Q 2397 3584 2469 3576 
Q 2541 3569 2628 3553 
L 2631 2963 
z
" transform="scale(0.015625)"/>
      <path id="DejaVuSans-61" d="M 2194 1759 
Q 1497 1759 1228 1600 
Q 959 1441 959 1056 
Q 959 750 1161 570 
Q 1363 391 1709 391 
Q 2188 391 2477 730 
Q 2766 1069 2766 1631 
L 2766 1759 
L 2194 1759 
z
M 3341 1997 
L 3341 0 
L 2766 0 
L 2766 531 
Q 2569 213 2275 61 
Q 1981 -91 1556 -91 
Q 1019 -91 701 211 
Q 384 513 384 1019 
Q 384 1609 779 1909 
Q 1175 2209 1959 2209 
L 2766 2209 
L 2766 2266 
Q 2766 2663 2505 2880 
Q 2244 3097 1772 3097 
Q 1472 3097 1187 3025 
Q 903 2953 641 2809 
L 641 3341 
Q 956 3463 1253 3523 
Q 1550 3584 1831 3584 
Q 2591 3584 2966 3190 
Q 3341 2797 3341 1997 
z
" transform="scale(0.015625)"/>
      <path id="DejaVuSans-6c" d="M 603 4863 
L 1178 4863 
L 1178 0 
L 603 0 
L 603 4863 
z
" transform="scale(0.015625)"/>
      <path id="DejaVuSans-3a" d="M 750 794 
L 1409 794 
L 1409 0 
L 750 0 
L 750 794 
z
M 750 3309 
L 1409 3309 
L 1409 2516 
L 750 2516 
L 750 3309 
z
" transform="scale(0.015625)"/>
      <path id="DejaVuSans-20" transform="scale(0.015625)"/>
      <path id="DejaVuSans-31" d="M 794 531 
L 1825 531 
L 1825 4091 
L 703 3866 
L 703 4441 
L 1819 4666 
L 2450 4666 
L 2450 531 
L 3481 531 
L 3481 0 
L 794 0 
L 794 531 
z
" transform="scale(0.015625)"/>
      <path id="DejaVuSans-30" d="M 2034 4250 
Q 1547 4250 1301 3770 
Q 1056 3291 1056 2328 
Q 1056 1369 1301 889 
Q 1547 409 2034 409 
Q 2525 409 2770 889 
Q 3016 1369 3016 2328 
Q 3016 3291 2770 3770 
Q 2525 4250 2034 4250 
z
M 2034 4750 
Q 2819 4750 3233 4129 
Q 3647 3509 3647 2328 
Q 3647 1150 3233 529 
Q 2819 -91 2034 -91 
Q 1250 -91 836 529 
Q 422 1150 422 2328 
Q 422 3509 836 4129 
Q 1250 4750 2034 4750 
z
" transform="scale(0.015625)"/>
      <path id="DejaVuSans-28" d="M 1984 4856 
Q 1566 4138 1362 3434 
Q 1159 2731 1159 2009 
Q 1159 1288 1364 580 
Q 1569 -128 1984 -844 
L 1484 -844 
Q 1016 -109 783 600 
Q 550 1309 550 2009 
Q 550 2706 781 3412 
Q 1013 4119 1484 4856 
L 1984 4856 
z
" transform="scale(0.015625)"/>
      <path id="DejaVuSans-Oblique-78" d="M 3841 3500 
L 2234 1784 
L 3219 0 
L 2559 0 
L 1819 1388 
L 531 0 
L -166 0 
L 1556 1844 
L 641 3500 
L 1300 3500 
L 1972 2234 
L 3144 3500 
L 3841 3500 
z
" transform="scale(0.015625)"/>
      <path id="DejaVuSans-2b" d="M 2944 4013 
L 2944 2272 
L 4684 2272 
L 4684 1741 
L 2944 1741 
L 2944 0 
L 2419 0 
L 2419 1741 
L 678 1741 
L 678 2272 
L 2419 2272 
L 2419 4013 
L 2944 4013 
z
" transform="scale(0.015625)"/>
      <path id="DejaVuSans-29" d="M 513 4856 
L 1013 4856 
Q 1481 4119 1714 3412 
Q 1947 2706 1947 2009 
Q 1947 1309 1714 600 
Q 1481 -109 1013 -844 
L 513 -844 
Q 928 -128 1133 580 
Q 1338 1288 1338 2009 
Q 1338 2731 1133 3434 
Q 928 4138 513 4856 
z
" transform="scale(0.015625)"/>
     </defs>
     <use xlink:href="#DejaVuSans-6f" transform="translate(0 0.684375)"/>
     <use xlink:href="#DejaVuSans-76" transform="translate(61.181641 0.684375)"/>
     <use xlink:href="#DejaVuSans-65" transform="translate(120.361328 0.684375)"/>
     <use xlink:href="#DejaVuSans-72" transform="translate(181.884766 0.684375)"/>
     <use xlink:href="#DejaVuSans-61" transform="translate(222.998047 0.684375)"/>
     <use xlink:href="#DejaVuSans-6c" transform="translate(284.277344 0.684375)"/>
     <use xlink:href="#DejaVuSans-6c" transform="translate(312.060547 0.684375)"/>
     <use xlink:href="#DejaVuSans-3a" transform="translate(339.84375 0.684375)"/>
     <use xlink:href="#DejaVuSans-20" transform="translate(373.535156 0.684375)"/>
     <use xlink:href="#DejaVuSans-d7" transform="translate(405.322266 0.684375)"/>
     <use xlink:href="#DejaVuSans-31" transform="translate(505.347004 0.684375)"/>
     <use xlink:href="#DejaVuSans-30" transform="translate(568.970051 0.684375)"/>
     <use xlink:href="#DejaVuSans-28" transform="translate(632.593098 0.684375)"/>
     <use xlink:href="#DejaVuSans-32" transform="translate(671.60677 0.684375)"/>
     <use xlink:href="#DejaVuSans-Oblique-78" transform="translate(735.229817 0.684375)"/>
     <use xlink:href="#DejaVuSans-2b" transform="translate(813.891926 0.684375)"/>
     <use xlink:href="#DejaVuSans-31" transform="translate(917.163411 0.684375)"/>
     <use xlink:href="#DejaVuSans-29" transform="translate(980.786458 0.684375)"/>
     <use xlink:href="#DejaVuSans-34" transform="translate(1020.757161 38.965625) scale(0.7)"/>
    </g>
   </g>
   <g id="text_4">
    <!-- $x$ -->
    <g style="fill: #6e7686" transform="translate(34.443614 36.605313) scale(0.11 -0.11)">
     <use xlink:href="#DejaVuSans-Oblique-78" transform="translate(0 0.3125)"/>
    </g>
   </g>
   <g id="text_5">
    <!-- $u = 2x+1$ -->
    <g style="fill: #6366c9" transform="translate(113.928916 36.605313) scale(0.11 -0.11)">
     <defs>
      <path id="DejaVuSans-3d" d="M 678 2906 
L 4684 2906 
L 4684 2381 
L 678 2381 
L 678 2906 
z
M 678 1631 
L 4684 1631 
L 4684 1100 
L 678 1100 
L 678 1631 
z
" transform="scale(0.015625)"/>
     </defs>
     <use xlink:href="#DejaVuSans-Oblique-75" transform="translate(0 0.78125)"/>
     <use xlink:href="#DejaVuSans-3d" transform="translate(82.861328 0.78125)"/>
     <use xlink:href="#DejaVuSans-32" transform="translate(186.132812 0.78125)"/>
     <use xlink:href="#DejaVuSans-Oblique-78" transform="translate(249.755859 0.78125)"/>
     <use xlink:href="#DejaVuSans-2b" transform="translate(328.417969 0.78125)"/>
     <use xlink:href="#DejaVuSans-31" transform="translate(431.689453 0.78125)"/>
    </g>
   </g>
   <g id="text_6">
    <!-- $u^5$ -->
    <g style="fill: #e2703a" transform="translate(258.261205 36.605313) scale(0.11 -0.11)">
     <use xlink:href="#DejaVuSans-Oblique-75" transform="translate(0 0.684375)"/>
     <use xlink:href="#DejaVuSans-35" transform="translate(67.845052 38.965625) scale(0.7)"/>
    </g>
   </g>
  </g>
 </g>
 <defs>
  <clipPath id="pc3665683c6">
   <rect x="1.44" y="1.44" width="301.32" height="83.16"/>
  </clipPath>
 </defs>
</svg>
